<svg xmlns="http://www.w3.org/2000/svg" width="960" height="560" viewBox="0 0 960 560"><rect width="100%" height="100%" fill="#ffffff"/><text x="64" y="26" font-size="18" font-weight="700" fill="#1c2738">渤海租赁 000415 · 买点二·前高支撑确认</text><text x="936" y="26" text-anchor="end" font-size="13" fill="#6f7b8f">确认 2026-08-14</text><line x1="64" y1="46.0" x2="936" y2="46.0" stroke="#edf0f5"/><text x="56" y="50.0" text-anchor="end" font-size="11" fill="#8a94a6">4.84</text><line x1="64" y1="133.5" x2="936" y2="133.5" stroke="#edf0f5"/><text x="56" y="137.5" text-anchor="end" font-size="11" fill="#8a94a6">4.51</text><line x1="64" y1="221.0" x2="936" y2="221.0" stroke="#edf0f5"/><text x="56" y="225.0" text-anchor="end" font-size="11" fill="#8a94a6">4.19</text><line x1="64" y1="308.5" x2="936" y2="308.5" stroke="#edf0f5"/><text x="56" y="312.5" text-anchor="end" font-size="11" fill="#8a94a6">3.86</text><line x1="64" y1="396.0" x2="936" y2="396.0" stroke="#edf0f5"/><text x="56" y="400.0" text-anchor="end" font-size="11" fill="#8a94a6">3.53</text><line x1="64" y1="246.4" x2="936" y2="246.4" stroke="#2f6fed" stroke-width="2" stroke-dasharray="8 5"/><text x="932" y="240.4" text-anchor="end" font-size="12" fill="#2f6fed">邻近前高 4.09</text><line x1="71.6" y1="155.6" x2="71.6" y2="219.7" stroke="#168a50" stroke-width="1.2"/><rect x="68.1" y="166.3" width="7.0" height="45.4" fill="#168a50" stroke="#168a50" stroke-width="1.2"/><rect x="68.1" y="475.6" width="7.0" height="34.4" fill="#168a50" opacity="0.75"/><line x1="86.9" y1="206.3" x2="86.9" y2="243.7" stroke="#168a50" stroke-width="1.2"/><rect x="83.4" y="214.3" width="7.0" height="10.7" fill="#168a50" stroke="#168a50" stroke-width="1.2"/><rect x="83.4" y="480.6" width="7.0" height="29.4" fill="#168a50" opacity="0.75"/><line x1="102.2" y1="203.6" x2="102.2" y2="241.0" stroke="#168a50" stroke-width="1.2"/><rect x="98.7" y="222.3" width="7.0" height="16.0" fill="#168a50" stroke="#168a50" stroke-width="1.2"/><rect x="98.7" y="482.1" width="7.0" height="27.9" fill="#168a50" opacity="0.75"/><line x1="117.5" y1="238.4" x2="117.5" y2="270.4" stroke="#168a50" stroke-width="1.2"/><rect x="114.0" y="249.0" width="7.0" height="2.7" fill="#168a50" stroke="#168a50" stroke-width="1.2"/><rect x="114.0" y="480.7" width="7.0" height="29.3" fill="#168a50" opacity="0.75"/><line x1="132.8" y1="254.4" x2="132.8" y2="275.7" stroke="#168a50" stroke-width="1.2"/><rect x="129.3" y="257.0" width="7.0" height="8.0" fill="#168a50" stroke="#168a50" stroke-width="1.2"/><rect x="129.3" y="483.2" width="7.0" height="26.8" fill="#168a50" opacity="0.75"/><line x1="148.1" y1="270.4" x2="148.1" y2="299.8" stroke="#168a50" stroke-width="1.2"/><rect x="144.6" y="273.1" width="7.0" height="13.4" fill="#168a50" stroke="#168a50" stroke-width="1.2"/><rect x="144.6" y="482.0" width="7.0" height="28.0" fill="#168a50" opacity="0.75"/><line x1="163.4" y1="265.1" x2="163.4" y2="305.1" stroke="#168a50" stroke-width="1.2"/><rect x="159.9" y="283.7" width="7.0" height="8.0" fill="#168a50" stroke="#168a50" stroke-width="1.2"/><rect x="159.9" y="483.3" width="7.0" height="26.7" fill="#168a50" opacity="0.75"/><line x1="178.7" y1="246.4" x2="178.7" y2="313.1" stroke="#168a50" stroke-width="1.2"/><rect x="175.2" y="291.8" width="7.0" height="8.0" fill="#168a50" stroke="#168a50" stroke-width="1.2"/><rect x="175.2" y="475.1" width="7.0" height="34.9" fill="#168a50" opacity="0.75"/><line x1="194.0" y1="310.4" x2="194.0" y2="363.9" stroke="#168a50" stroke-width="1.2"/><rect x="190.5" y="321.1" width="7.0" height="32.0" fill="#168a50" stroke="#168a50" stroke-width="1.2"/><rect x="190.5" y="475.0" width="7.0" height="35.0" fill="#168a50" opacity="0.75"/><line x1="209.3" y1="337.2" x2="209.3" y2="366.5" stroke="#d84a3a" stroke-width="1.2"/><rect x="205.8" y="350.5" width="7.0" height="1.4" fill="#ffffff" stroke="#d84a3a" stroke-width="1.2"/><rect x="205.8" y="482.6" width="7.0" height="27.4" fill="#d84a3a" opacity="0.75"/><line x1="224.6" y1="273.1" x2="224.6" y2="371.9" stroke="#d84a3a" stroke-width="1.2"/><rect x="221.1" y="283.7" width="7.0" height="74.8" fill="#ffffff" stroke="#d84a3a" stroke-width="1.2"/><rect x="221.1" y="449.3" width="7.0" height="60.7" fill="#d84a3a" opacity="0.75"/><line x1="239.9" y1="275.7" x2="239.9" y2="321.1" stroke="#d84a3a" stroke-width="1.2"/><rect x="236.4" y="289.1" width="7.0" height="13.4" fill="#ffffff" stroke="#d84a3a" stroke-width="1.2"/><rect x="236.4" y="475.0" width="7.0" height="35.0" fill="#d84a3a" opacity="0.75"/><line x1="255.2" y1="219.7" x2="255.2" y2="283.7" stroke="#d84a3a" stroke-width="1.2"/><rect x="251.7" y="238.4" width="7.0" height="34.7" fill="#ffffff" stroke="#d84a3a" stroke-width="1.2"/><rect x="251.7" y="463.3" width="7.0" height="46.7" fill="#d84a3a" opacity="0.75"/><line x1="270.5" y1="142.2" x2="270.5" y2="201.0" stroke="#d84a3a" stroke-width="1.2"/><rect x="267.0" y="187.6" width="7.0" height="13.4" fill="#ffffff" stroke="#d84a3a" stroke-width="1.2"/><rect x="267.0" y="455.6" width="7.0" height="54.4" fill="#d84a3a" opacity="0.75"/><line x1="285.8" y1="144.9" x2="285.8" y2="195.6" stroke="#d84a3a" stroke-width="1.2"/><rect x="282.3" y="168.9" width="7.0" height="18.7" fill="#ffffff" stroke="#d84a3a" stroke-width="1.2"/><rect x="282.3" y="466.7" width="7.0" height="43.3" fill="#d84a3a" opacity="0.75"/><line x1="301.1" y1="155.6" x2="301.1" y2="185.0" stroke="#d84a3a" stroke-width="1.2"/><rect x="297.6" y="168.9" width="7.0" height="1.4" fill="#ffffff" stroke="#d84a3a" stroke-width="1.2"/><rect x="297.6" y="481.3" width="7.0" height="28.7" fill="#d84a3a" opacity="0.75"/><line x1="316.4" y1="166.3" x2="316.4" y2="201.0" stroke="#168a50" stroke-width="1.2"/><rect x="312.9" y="174.3" width="7.0" height="5.3" fill="#168a50" stroke="#168a50" stroke-width="1.2"/><rect x="312.9" y="478.9" width="7.0" height="31.1" fill="#168a50" opacity="0.75"/><line x1="331.7" y1="142.2" x2="331.7" y2="217.0" stroke="#d84a3a" stroke-width="1.2"/><rect x="328.2" y="152.9" width="7.0" height="37.4" fill="#ffffff" stroke="#d84a3a" stroke-width="1.2"/><rect x="328.2" y="474.7" width="7.0" height="35.3" fill="#d84a3a" opacity="0.75"/><line x1="347.0" y1="136.9" x2="347.0" y2="185.0" stroke="#168a50" stroke-width="1.2"/><rect x="343.5" y="150.2" width="7.0" height="29.4" fill="#168a50" stroke="#168a50" stroke-width="1.2"/><rect x="343.5" y="484.5" width="7.0" height="25.5" fill="#168a50" opacity="0.75"/><line x1="362.3" y1="171.6" x2="362.3" y2="217.0" stroke="#168a50" stroke-width="1.2"/><rect x="358.8" y="179.6" width="7.0" height="32.0" fill="#168a50" stroke="#168a50" stroke-width="1.2"/><rect x="358.8" y="476.0" width="7.0" height="34.0" fill="#168a50" opacity="0.75"/><line x1="377.6" y1="152.9" x2="377.6" y2="222.3" stroke="#d84a3a" stroke-width="1.2"/><rect x="374.1" y="163.6" width="7.0" height="42.7" fill="#ffffff" stroke="#d84a3a" stroke-width="1.2"/><rect x="374.1" y="473.7" width="7.0" height="36.3" fill="#d84a3a" opacity="0.75"/><line x1="392.9" y1="166.3" x2="392.9" y2="227.7" stroke="#168a50" stroke-width="1.2"/><rect x="389.4" y="168.9" width="7.0" height="58.7" fill="#168a50" stroke="#168a50" stroke-width="1.2"/><rect x="389.4" y="472.5" width="7.0" height="37.5" fill="#168a50" opacity="0.75"/><line x1="408.2" y1="225.0" x2="408.2" y2="273.1" stroke="#168a50" stroke-width="1.2"/><rect x="404.7" y="227.7" width="7.0" height="13.4" fill="#168a50" stroke="#168a50" stroke-width="1.2"/><rect x="404.7" y="476.5" width="7.0" height="33.5" fill="#168a50" opacity="0.75"/><line x1="423.5" y1="241.0" x2="423.5" y2="270.4" stroke="#168a50" stroke-width="1.2"/><rect x="420.0" y="243.7" width="7.0" height="8.0" fill="#168a50" stroke="#168a50" stroke-width="1.2"/><rect x="420.0" y="484.2" width="7.0" height="25.8" fill="#168a50" opacity="0.75"/><line x1="438.8" y1="217.0" x2="438.8" y2="270.4" stroke="#d84a3a" stroke-width="1.2"/><rect x="435.3" y="230.3" width="7.0" height="21.4" fill="#ffffff" stroke="#d84a3a" stroke-width="1.2"/><rect x="435.3" y="477.3" width="7.0" height="32.7" fill="#d84a3a" opacity="0.75"/><line x1="454.1" y1="185.0" x2="454.1" y2="238.4" stroke="#d84a3a" stroke-width="1.2"/><rect x="450.6" y="211.7" width="7.0" height="1.4" fill="#ffffff" stroke="#d84a3a" stroke-width="1.2"/><rect x="450.6" y="476.3" width="7.0" height="33.7" fill="#d84a3a" opacity="0.75"/><line x1="469.4" y1="155.6" x2="469.4" y2="206.3" stroke="#d84a3a" stroke-width="1.2"/><rect x="465.9" y="160.9" width="7.0" height="45.4" fill="#ffffff" stroke="#d84a3a" stroke-width="1.2"/><rect x="465.9" y="468.0" width="7.0" height="42.0" fill="#d84a3a" opacity="0.75"/><line x1="484.7" y1="102.2" x2="484.7" y2="160.9" stroke="#d84a3a" stroke-width="1.2"/><rect x="481.2" y="107.5" width="7.0" height="50.7" fill="#ffffff" stroke="#d84a3a" stroke-width="1.2"/><rect x="481.2" y="443.5" width="7.0" height="66.5" fill="#d84a3a" opacity="0.75"/><line x1="500.0" y1="72.8" x2="500.0" y2="107.5" stroke="#d84a3a" stroke-width="1.2"/><rect x="496.5" y="88.8" width="7.0" height="10.7" fill="#ffffff" stroke="#d84a3a" stroke-width="1.2"/><rect x="496.5" y="444.7" width="7.0" height="65.3" fill="#d84a3a" opacity="0.75"/><line x1="515.3" y1="70.1" x2="515.3" y2="195.6" stroke="#168a50" stroke-width="1.2"/><rect x="511.8" y="99.5" width="7.0" height="72.1" fill="#168a50" stroke="#168a50" stroke-width="1.2"/><rect x="511.8" y="420.0" width="7.0" height="90.0" fill="#168a50" opacity="0.75"/><line x1="530.6" y1="147.6" x2="530.6" y2="195.6" stroke="#168a50" stroke-width="1.2"/><rect x="527.1" y="171.6" width="7.0" height="2.7" fill="#168a50" stroke="#168a50" stroke-width="1.2"/><rect x="527.1" y="461.3" width="7.0" height="48.7" fill="#168a50" opacity="0.75"/><line x1="545.9" y1="155.6" x2="545.9" y2="222.3" stroke="#168a50" stroke-width="1.2"/><rect x="542.4" y="158.3" width="7.0" height="61.4" fill="#168a50" stroke="#168a50" stroke-width="1.2"/><rect x="542.4" y="460.4" width="7.0" height="49.6" fill="#168a50" opacity="0.75"/><line x1="561.2" y1="209.0" x2="561.2" y2="246.4" stroke="#168a50" stroke-width="1.2"/><rect x="557.7" y="219.7" width="7.0" height="21.4" fill="#168a50" stroke="#168a50" stroke-width="1.2"/><rect x="557.7" y="475.0" width="7.0" height="35.0" fill="#168a50" opacity="0.75"/><line x1="576.5" y1="185.0" x2="576.5" y2="249.0" stroke="#d84a3a" stroke-width="1.2"/><rect x="573.0" y="187.6" width="7.0" height="56.1" fill="#ffffff" stroke="#d84a3a" stroke-width="1.2"/><rect x="573.0" y="474.2" width="7.0" height="35.8" fill="#d84a3a" opacity="0.75"/><line x1="591.8" y1="139.6" x2="591.8" y2="201.0" stroke="#d84a3a" stroke-width="1.2"/><rect x="588.3" y="150.2" width="7.0" height="42.7" fill="#ffffff" stroke="#d84a3a" stroke-width="1.2"/><rect x="588.3" y="475.0" width="7.0" height="35.0" fill="#d84a3a" opacity="0.75"/><line x1="607.1" y1="142.2" x2="607.1" y2="190.3" stroke="#168a50" stroke-width="1.2"/><rect x="603.6" y="158.3" width="7.0" height="13.4" fill="#168a50" stroke="#168a50" stroke-width="1.2"/><rect x="603.6" y="480.7" width="7.0" height="29.3" fill="#168a50" opacity="0.75"/><line x1="622.4" y1="166.3" x2="622.4" y2="217.0" stroke="#168a50" stroke-width="1.2"/><rect x="618.9" y="174.3" width="7.0" height="37.4" fill="#168a50" stroke="#168a50" stroke-width="1.2"/><rect x="618.9" y="475.2" width="7.0" height="34.8" fill="#168a50" opacity="0.75"/><line x1="637.7" y1="193.0" x2="637.7" y2="238.4" stroke="#168a50" stroke-width="1.2"/><rect x="634.2" y="211.7" width="7.0" height="8.0" fill="#168a50" stroke="#168a50" stroke-width="1.2"/><rect x="634.2" y="474.2" width="7.0" height="35.8" fill="#168a50" opacity="0.75"/><line x1="653.0" y1="182.3" x2="653.0" y2="222.3" stroke="#d84a3a" stroke-width="1.2"/><rect x="649.5" y="209.0" width="7.0" height="5.3" fill="#ffffff" stroke="#d84a3a" stroke-width="1.2"/><rect x="649.5" y="463.3" width="7.0" height="46.7" fill="#d84a3a" opacity="0.75"/><line x1="668.3" y1="193.0" x2="668.3" y2="222.3" stroke="#d84a3a" stroke-width="1.2"/><rect x="664.8" y="211.7" width="7.0" height="8.0" fill="#ffffff" stroke="#d84a3a" stroke-width="1.2"/><rect x="664.8" y="486.4" width="7.0" height="23.6" fill="#d84a3a" opacity="0.75"/><line x1="683.6" y1="201.0" x2="683.6" y2="230.3" stroke="#d84a3a" stroke-width="1.2"/><rect x="680.1" y="206.3" width="7.0" height="10.7" fill="#ffffff" stroke="#d84a3a" stroke-width="1.2"/><rect x="680.1" y="482.8" width="7.0" height="27.2" fill="#d84a3a" opacity="0.75"/><line x1="698.9" y1="209.0" x2="698.9" y2="243.7" stroke="#168a50" stroke-width="1.2"/><rect x="695.4" y="214.3" width="7.0" height="24.0" fill="#168a50" stroke="#168a50" stroke-width="1.2"/><rect x="695.4" y="488.0" width="7.0" height="22.0" fill="#168a50" opacity="0.75"/><line x1="714.2" y1="187.6" x2="714.2" y2="241.0" stroke="#d84a3a" stroke-width="1.2"/><rect x="710.7" y="193.0" width="7.0" height="48.1" fill="#ffffff" stroke="#d84a3a" stroke-width="1.2"/><rect x="710.7" y="480.7" width="7.0" height="29.3" fill="#d84a3a" opacity="0.75"/><line x1="729.5" y1="198.3" x2="729.5" y2="225.0" stroke="#168a50" stroke-width="1.2"/><rect x="726.0" y="203.6" width="7.0" height="16.0" fill="#168a50" stroke="#168a50" stroke-width="1.2"/><rect x="726.0" y="489.1" width="7.0" height="20.9" fill="#168a50" opacity="0.75"/><line x1="744.8" y1="147.6" x2="744.8" y2="222.3" stroke="#d84a3a" stroke-width="1.2"/><rect x="741.3" y="155.6" width="7.0" height="64.1" fill="#ffffff" stroke="#d84a3a" stroke-width="1.2"/><rect x="741.3" y="468.9" width="7.0" height="41.1" fill="#d84a3a" opacity="0.75"/><line x1="760.1" y1="136.9" x2="760.1" y2="179.6" stroke="#d84a3a" stroke-width="1.2"/><rect x="756.6" y="160.9" width="7.0" height="2.7" fill="#ffffff" stroke="#d84a3a" stroke-width="1.2"/><rect x="756.6" y="481.3" width="7.0" height="28.7" fill="#d84a3a" opacity="0.75"/><line x1="775.4" y1="112.9" x2="775.4" y2="163.6" stroke="#d84a3a" stroke-width="1.2"/><rect x="771.9" y="123.5" width="7.0" height="13.4" fill="#ffffff" stroke="#d84a3a" stroke-width="1.2"/><rect x="771.9" y="464.5" width="7.0" height="45.5" fill="#d84a3a" opacity="0.75"/><line x1="790.7" y1="96.8" x2="790.7" y2="128.9" stroke="#d84a3a" stroke-width="1.2"/><rect x="787.2" y="126.2" width="7.0" height="2.7" fill="#ffffff" stroke="#d84a3a" stroke-width="1.2"/><rect x="787.2" y="482.5" width="7.0" height="27.5" fill="#d84a3a" opacity="0.75"/><line x1="806.0" y1="118.2" x2="806.0" y2="150.2" stroke="#168a50" stroke-width="1.2"/><rect x="802.5" y="120.9" width="7.0" height="21.4" fill="#168a50" stroke="#168a50" stroke-width="1.2"/><rect x="802.5" y="488.7" width="7.0" height="21.3" fill="#168a50" opacity="0.75"/><line x1="821.3" y1="104.8" x2="821.3" y2="142.2" stroke="#d84a3a" stroke-width="1.2"/><rect x="817.8" y="115.5" width="7.0" height="18.7" fill="#ffffff" stroke="#d84a3a" stroke-width="1.2"/><rect x="817.8" y="484.6" width="7.0" height="25.4" fill="#d84a3a" opacity="0.75"/><line x1="836.6" y1="99.5" x2="836.6" y2="139.6" stroke="#168a50" stroke-width="1.2"/><rect x="833.1" y="118.2" width="7.0" height="13.4" fill="#168a50" stroke="#168a50" stroke-width="1.2"/><rect x="833.1" y="487.6" width="7.0" height="22.4" fill="#168a50" opacity="0.75"/><line x1="851.9" y1="120.9" x2="851.9" y2="144.9" stroke="#d84a3a" stroke-width="1.2"/><rect x="848.4" y="131.6" width="7.0" height="2.7" fill="#ffffff" stroke="#d84a3a" stroke-width="1.2"/><rect x="848.4" y="489.0" width="7.0" height="21.0" fill="#d84a3a" opacity="0.75"/><line x1="867.2" y1="96.8" x2="867.2" y2="128.9" stroke="#d84a3a" stroke-width="1.2"/><rect x="863.7" y="99.5" width="7.0" height="24.0" fill="#ffffff" stroke="#d84a3a" stroke-width="1.2"/><rect x="863.7" y="482.8" width="7.0" height="27.2" fill="#d84a3a" opacity="0.75"/><line x1="882.5" y1="88.8" x2="882.5" y2="128.9" stroke="#168a50" stroke-width="1.2"/><rect x="879.0" y="96.8" width="7.0" height="29.4" fill="#168a50" stroke="#168a50" stroke-width="1.2"/><rect x="879.0" y="493.3" width="7.0" height="16.7" fill="#168a50" opacity="0.75"/><line x1="897.8" y1="120.9" x2="897.8" y2="150.2" stroke="#168a50" stroke-width="1.2"/><rect x="894.3" y="128.9" width="7.0" height="13.4" fill="#168a50" stroke="#168a50" stroke-width="1.2"/><rect x="894.3" y="488.6" width="7.0" height="21.4" fill="#168a50" opacity="0.75"/><line x1="913.1" y1="123.5" x2="913.1" y2="150.2" stroke="#168a50" stroke-width="1.2"/><rect x="909.6" y="139.6" width="7.0" height="5.3" fill="#168a50" stroke="#168a50" stroke-width="1.2"/><rect x="909.6" y="492.5" width="7.0" height="17.5" fill="#168a50" opacity="0.75"/><line x1="928.4" y1="112.9" x2="928.4" y2="152.9" stroke="#d84a3a" stroke-width="1.2"/><rect x="924.9" y="134.2" width="7.0" height="13.4" fill="#ffffff" stroke="#d84a3a" stroke-width="1.2"/><rect x="924.9" y="489.9" width="7.0" height="20.1" fill="#d84a3a" opacity="0.75"/><polyline points="71.6,142.8 86.9,148.8 102.2,158.0 117.5,167.3 132.8,176.1 148.1,185.1 163.4,196.4 178.7,208.7 194.0,222.9 209.3,235.3 224.6,241.7 239.9,248.4 255.2,251.2 270.5,248.4 285.8,247.0 301.1,244.6 316.4,242.0 331.7,238.0 347.0,238.9 362.3,241.7 377.6,239.3 392.9,239.4 408.2,239.6 423.5,239.6 438.8,237.8 454.1,234.1 469.4,227.5 484.7,217.9 500.0,204.7 515.3,195.8 530.6,190.3 545.9,186.8 561.2,187.0 576.5,187.0 591.8,186.0 607.1,186.2 622.4,187.8 637.7,191.1 653.0,192.6 668.3,192.6 683.6,194.7 698.9,195.2 714.2,192.8 729.5,191.2 744.8,187.5 760.1,185.0 775.4,183.1 790.7,184.0 806.0,186.7 821.3,183.9 836.6,181.7 851.9,177.3 867.2,170.3 882.5,167.2 897.8,166.8 913.1,165.5 928.4,161.6" fill="none" stroke="#7b3ff2" stroke-width="2.2"/><text x="72" y="64" font-size="12" fill="#7b3ff2">MA20</text><line x1="928.4" y1="46" x2="928.4" y2="510" stroke="#f0a000" stroke-width="1.6" stroke-dasharray="5 4"/><text x="923.4" y="62" text-anchor="end" font-size="12" fill="#b66d00">确认K</text><text x="71.6" y="544" text-anchor="middle" font-size="11" fill="#8a94a6">2026-05-27</text><text x="500.0" y="544" text-anchor="middle" font-size="11" fill="#8a94a6">2026-07-07</text><text x="928.4" y="544" text-anchor="middle" font-size="11" fill="#8a94a6">2026-08-14</text><line x1="64" y1="510" x2="936" y2="510" stroke="#dfe4ec"/></svg>