<svg xmlns="http://www.w3.org/2000/svg" width="960" height="560" viewBox="0 0 960 560"><rect width="100%" height="100%" fill="#ffffff"/><text x="64" y="26" font-size="18" font-weight="700" fill="#1c2738">恺英网络 002517 · 买点一·MA20回踩确认</text><text x="936" y="26" text-anchor="end" font-size="13" fill="#6f7b8f">确认 2026-08-14</text><line x1="64" y1="46.0" x2="936" y2="46.0" stroke="#edf0f5"/><text x="56" y="50.0" text-anchor="end" font-size="11" fill="#8a94a6">19.41</text><line x1="64" y1="133.5" x2="936" y2="133.5" stroke="#edf0f5"/><text x="56" y="137.5" text-anchor="end" font-size="11" fill="#8a94a6">17.95</text><line x1="64" y1="221.0" x2="936" y2="221.0" stroke="#edf0f5"/><text x="56" y="225.0" text-anchor="end" font-size="11" fill="#8a94a6">16.48</text><line x1="64" y1="308.5" x2="936" y2="308.5" stroke="#edf0f5"/><text x="56" y="312.5" text-anchor="end" font-size="11" fill="#8a94a6">15.01</text><line x1="64" y1="396.0" x2="936" y2="396.0" stroke="#edf0f5"/><text x="56" y="400.0" text-anchor="end" font-size="11" fill="#8a94a6">13.55</text><line x1="64" y1="191.8" x2="936" y2="191.8" stroke="#2f6fed" stroke-width="2" stroke-dasharray="8 5"/><text x="932" y="185.8" text-anchor="end" font-size="12" fill="#2f6fed">MA20 16.97</text><line x1="72.7" y1="271.6" x2="72.7" y2="309.2" stroke="#168a50" stroke-width="1.2"/><rect x="69.2" y="301.4" width="7.0" height="1.4" fill="#168a50" stroke="#168a50" stroke-width="1.2"/><rect x="69.2" y="479.3" width="7.0" height="30.7" fill="#168a50" opacity="0.75"/><line x1="90.2" y1="298.5" x2="90.2" y2="345.0" stroke="#168a50" stroke-width="1.2"/><rect x="86.7" y="327.1" width="7.0" height="6.6" fill="#168a50" stroke="#168a50" stroke-width="1.2"/><rect x="86.7" y="482.7" width="7.0" height="27.3" fill="#168a50" opacity="0.75"/><line x1="107.6" y1="314.0" x2="107.6" y2="342.0" stroke="#168a50" stroke-width="1.2"/><rect x="104.1" y="319.4" width="7.0" height="7.8" fill="#168a50" stroke="#168a50" stroke-width="1.2"/><rect x="104.1" y="488.4" width="7.0" height="21.6" fill="#168a50" opacity="0.75"/><line x1="125.0" y1="328.9" x2="125.0" y2="347.4" stroke="#d84a3a" stroke-width="1.2"/><rect x="121.5" y="337.9" width="7.0" height="1.4" fill="#ffffff" stroke="#d84a3a" stroke-width="1.2"/><rect x="121.5" y="488.7" width="7.0" height="21.3" fill="#d84a3a" opacity="0.75"/><line x1="142.5" y1="338.5" x2="142.5" y2="364.1" stroke="#168a50" stroke-width="1.2"/><rect x="139.0" y="346.8" width="7.0" height="11.3" fill="#168a50" stroke="#168a50" stroke-width="1.2"/><rect x="139.0" y="485.6" width="7.0" height="24.4" fill="#168a50" opacity="0.75"/><line x1="159.9" y1="315.2" x2="159.9" y2="359.3" stroke="#d84a3a" stroke-width="1.2"/><rect x="156.4" y="325.4" width="7.0" height="22.1" fill="#ffffff" stroke="#d84a3a" stroke-width="1.2"/><rect x="156.4" y="468.3" width="7.0" height="41.7" fill="#d84a3a" opacity="0.75"/><line x1="177.4" y1="303.9" x2="177.4" y2="327.1" stroke="#d84a3a" stroke-width="1.2"/><rect x="173.9" y="310.4" width="7.0" height="15.5" fill="#ffffff" stroke="#d84a3a" stroke-width="1.2"/><rect x="173.9" y="483.6" width="7.0" height="26.4" fill="#d84a3a" opacity="0.75"/><line x1="194.8" y1="308.7" x2="194.8" y2="328.3" stroke="#168a50" stroke-width="1.2"/><rect x="191.3" y="315.8" width="7.0" height="9.5" fill="#168a50" stroke="#168a50" stroke-width="1.2"/><rect x="191.3" y="488.3" width="7.0" height="21.7" fill="#168a50" opacity="0.75"/><line x1="212.2" y1="325.4" x2="212.2" y2="346.8" stroke="#168a50" stroke-width="1.2"/><rect x="208.7" y="330.7" width="7.0" height="3.6" fill="#168a50" stroke="#168a50" stroke-width="1.2"/><rect x="208.7" y="487.9" width="7.0" height="22.1" fill="#168a50" opacity="0.75"/><line x1="229.7" y1="310.4" x2="229.7" y2="342.0" stroke="#168a50" stroke-width="1.2"/><rect x="226.2" y="335.5" width="7.0" height="3.6" fill="#168a50" stroke="#168a50" stroke-width="1.2"/><rect x="226.2" y="487.2" width="7.0" height="22.8" fill="#168a50" opacity="0.75"/><line x1="247.1" y1="296.7" x2="247.1" y2="371.9" stroke="#d84a3a" stroke-width="1.2"/><rect x="243.6" y="297.3" width="7.0" height="50.7" fill="#ffffff" stroke="#d84a3a" stroke-width="1.2"/><rect x="243.6" y="460.7" width="7.0" height="49.3" fill="#d84a3a" opacity="0.75"/><line x1="264.6" y1="281.2" x2="264.6" y2="313.4" stroke="#d84a3a" stroke-width="1.2"/><rect x="261.1" y="304.5" width="7.0" height="1.8" fill="#ffffff" stroke="#d84a3a" stroke-width="1.2"/><rect x="261.1" y="468.7" width="7.0" height="41.3" fill="#d84a3a" opacity="0.75"/><line x1="282.0" y1="252.6" x2="282.0" y2="308.7" stroke="#d84a3a" stroke-width="1.2"/><rect x="278.5" y="284.2" width="7.0" height="22.1" fill="#ffffff" stroke="#d84a3a" stroke-width="1.2"/><rect x="278.5" y="454.5" width="7.0" height="55.5" fill="#d84a3a" opacity="0.75"/><line x1="299.4" y1="241.9" x2="299.4" y2="293.7" stroke="#d84a3a" stroke-width="1.2"/><rect x="295.9" y="245.4" width="7.0" height="42.9" fill="#ffffff" stroke="#d84a3a" stroke-width="1.2"/><rect x="295.9" y="446.4" width="7.0" height="63.6" fill="#d84a3a" opacity="0.75"/><line x1="316.9" y1="238.3" x2="316.9" y2="306.9" stroke="#168a50" stroke-width="1.2"/><rect x="313.4" y="255.6" width="7.0" height="17.9" fill="#168a50" stroke="#168a50" stroke-width="1.2"/><rect x="313.4" y="452.1" width="7.0" height="57.9" fill="#168a50" opacity="0.75"/><line x1="334.3" y1="227.6" x2="334.3" y2="273.5" stroke="#d84a3a" stroke-width="1.2"/><rect x="330.8" y="239.5" width="7.0" height="34.0" fill="#ffffff" stroke="#d84a3a" stroke-width="1.2"/><rect x="330.8" y="461.1" width="7.0" height="48.9" fill="#d84a3a" opacity="0.75"/><line x1="351.8" y1="232.9" x2="351.8" y2="267.5" stroke="#d84a3a" stroke-width="1.2"/><rect x="348.3" y="234.7" width="7.0" height="14.3" fill="#ffffff" stroke="#d84a3a" stroke-width="1.2"/><rect x="348.3" y="464.1" width="7.0" height="45.9" fill="#d84a3a" opacity="0.75"/><line x1="369.2" y1="232.9" x2="369.2" y2="269.3" stroke="#168a50" stroke-width="1.2"/><rect x="365.7" y="237.7" width="7.0" height="16.1" fill="#168a50" stroke="#168a50" stroke-width="1.2"/><rect x="365.7" y="464.2" width="7.0" height="45.8" fill="#168a50" opacity="0.75"/><line x1="386.6" y1="188.8" x2="386.6" y2="252.6" stroke="#d84a3a" stroke-width="1.2"/><rect x="383.1" y="221.6" width="7.0" height="19.1" fill="#ffffff" stroke="#d84a3a" stroke-width="1.2"/><rect x="383.1" y="438.4" width="7.0" height="71.6" fill="#d84a3a" opacity="0.75"/><line x1="404.1" y1="181.0" x2="404.1" y2="235.9" stroke="#d84a3a" stroke-width="1.2"/><rect x="400.6" y="194.8" width="7.0" height="12.5" fill="#ffffff" stroke="#d84a3a" stroke-width="1.2"/><rect x="400.6" y="458.9" width="7.0" height="51.1" fill="#d84a3a" opacity="0.75"/><line x1="421.5" y1="150.6" x2="421.5" y2="203.1" stroke="#d84a3a" stroke-width="1.2"/><rect x="418.0" y="172.7" width="7.0" height="24.4" fill="#ffffff" stroke="#d84a3a" stroke-width="1.2"/><rect x="418.0" y="453.7" width="7.0" height="56.3" fill="#d84a3a" opacity="0.75"/><line x1="439.0" y1="121.4" x2="439.0" y2="203.7" stroke="#168a50" stroke-width="1.2"/><rect x="435.5" y="172.1" width="7.0" height="23.3" fill="#168a50" stroke="#168a50" stroke-width="1.2"/><rect x="435.5" y="441.6" width="7.0" height="68.4" fill="#168a50" opacity="0.75"/><line x1="456.4" y1="193.0" x2="456.4" y2="236.5" stroke="#168a50" stroke-width="1.2"/><rect x="452.9" y="196.0" width="7.0" height="34.6" fill="#168a50" stroke="#168a50" stroke-width="1.2"/><rect x="452.9" y="465.6" width="7.0" height="44.4" fill="#168a50" opacity="0.75"/><line x1="473.8" y1="203.7" x2="473.8" y2="261.5" stroke="#d84a3a" stroke-width="1.2"/><rect x="470.3" y="228.8" width="7.0" height="8.9" fill="#ffffff" stroke="#d84a3a" stroke-width="1.2"/><rect x="470.3" y="469.6" width="7.0" height="40.4" fill="#d84a3a" opacity="0.75"/><line x1="491.3" y1="161.4" x2="491.3" y2="255.6" stroke="#d84a3a" stroke-width="1.2"/><rect x="487.8" y="194.8" width="7.0" height="45.3" fill="#ffffff" stroke="#d84a3a" stroke-width="1.2"/><rect x="487.8" y="447.5" width="7.0" height="62.5" fill="#d84a3a" opacity="0.75"/><line x1="508.7" y1="190.6" x2="508.7" y2="261.5" stroke="#168a50" stroke-width="1.2"/><rect x="505.2" y="206.1" width="7.0" height="42.3" fill="#168a50" stroke="#168a50" stroke-width="1.2"/><rect x="505.2" y="466.5" width="7.0" height="43.5" fill="#168a50" opacity="0.75"/><line x1="526.2" y1="237.7" x2="526.2" y2="289.0" stroke="#168a50" stroke-width="1.2"/><rect x="522.7" y="250.2" width="7.0" height="22.1" fill="#168a50" stroke="#168a50" stroke-width="1.2"/><rect x="522.7" y="471.4" width="7.0" height="38.6" fill="#168a50" opacity="0.75"/><line x1="543.6" y1="179.3" x2="543.6" y2="283.6" stroke="#d84a3a" stroke-width="1.2"/><rect x="540.1" y="179.3" width="7.0" height="99.0" fill="#ffffff" stroke="#d84a3a" stroke-width="1.2"/><rect x="540.1" y="442.5" width="7.0" height="67.5" fill="#d84a3a" opacity="0.75"/><line x1="561.0" y1="163.8" x2="561.0" y2="218.0" stroke="#168a50" stroke-width="1.2"/><rect x="557.5" y="179.3" width="7.0" height="10.1" fill="#168a50" stroke="#168a50" stroke-width="1.2"/><rect x="557.5" y="421.8" width="7.0" height="88.2" fill="#168a50" opacity="0.75"/><line x1="578.5" y1="176.3" x2="578.5" y2="246.6" stroke="#168a50" stroke-width="1.2"/><rect x="575.0" y="198.9" width="7.0" height="38.8" fill="#168a50" stroke="#168a50" stroke-width="1.2"/><rect x="575.0" y="448.7" width="7.0" height="61.3" fill="#168a50" opacity="0.75"/><line x1="595.9" y1="207.3" x2="595.9" y2="261.5" stroke="#d84a3a" stroke-width="1.2"/><rect x="592.4" y="208.5" width="7.0" height="28.0" fill="#ffffff" stroke="#d84a3a" stroke-width="1.2"/><rect x="592.4" y="450.5" width="7.0" height="59.5" fill="#d84a3a" opacity="0.75"/><line x1="613.4" y1="172.1" x2="613.4" y2="227.6" stroke="#d84a3a" stroke-width="1.2"/><rect x="609.9" y="201.3" width="7.0" height="14.3" fill="#ffffff" stroke="#d84a3a" stroke-width="1.2"/><rect x="609.9" y="453.7" width="7.0" height="56.3" fill="#d84a3a" opacity="0.75"/><line x1="630.8" y1="210.9" x2="630.8" y2="249.0" stroke="#168a50" stroke-width="1.2"/><rect x="627.3" y="217.4" width="7.0" height="28.6" fill="#168a50" stroke="#168a50" stroke-width="1.2"/><rect x="627.3" y="464.4" width="7.0" height="45.6" fill="#168a50" opacity="0.75"/><line x1="648.2" y1="253.2" x2="648.2" y2="320.0" stroke="#168a50" stroke-width="1.2"/><rect x="644.7" y="255.6" width="7.0" height="20.9" fill="#168a50" stroke="#168a50" stroke-width="1.2"/><rect x="644.7" y="453.8" width="7.0" height="56.2" fill="#168a50" opacity="0.75"/><line x1="665.7" y1="277.1" x2="665.7" y2="317.0" stroke="#168a50" stroke-width="1.2"/><rect x="662.2" y="299.1" width="7.0" height="17.3" fill="#168a50" stroke="#168a50" stroke-width="1.2"/><rect x="662.2" y="477.8" width="7.0" height="32.2" fill="#168a50" opacity="0.75"/><line x1="683.1" y1="283.6" x2="683.1" y2="325.4" stroke="#d84a3a" stroke-width="1.2"/><rect x="679.6" y="285.4" width="7.0" height="37.0" fill="#ffffff" stroke="#d84a3a" stroke-width="1.2"/><rect x="679.6" y="479.2" width="7.0" height="30.8" fill="#d84a3a" opacity="0.75"/><line x1="700.6" y1="279.4" x2="700.6" y2="303.3" stroke="#168a50" stroke-width="1.2"/><rect x="697.1" y="298.5" width="7.0" height="1.4" fill="#168a50" stroke="#168a50" stroke-width="1.2"/><rect x="697.1" y="486.3" width="7.0" height="23.7" fill="#168a50" opacity="0.75"/><line x1="718.0" y1="208.5" x2="718.0" y2="299.7" stroke="#d84a3a" stroke-width="1.2"/><rect x="714.5" y="208.5" width="7.0" height="82.9" fill="#ffffff" stroke="#d84a3a" stroke-width="1.2"/><rect x="714.5" y="449.8" width="7.0" height="60.2" fill="#d84a3a" opacity="0.75"/><line x1="735.4" y1="157.8" x2="735.4" y2="219.8" stroke="#168a50" stroke-width="1.2"/><rect x="731.9" y="175.7" width="7.0" height="44.1" fill="#168a50" stroke="#168a50" stroke-width="1.2"/><rect x="731.9" y="425.2" width="7.0" height="84.8" fill="#168a50" opacity="0.75"/><line x1="752.9" y1="157.2" x2="752.9" y2="237.7" stroke="#d84a3a" stroke-width="1.2"/><rect x="749.4" y="178.7" width="7.0" height="59.0" fill="#ffffff" stroke="#d84a3a" stroke-width="1.2"/><rect x="749.4" y="437.3" width="7.0" height="72.7" fill="#d84a3a" opacity="0.75"/><line x1="770.3" y1="112.5" x2="770.3" y2="190.0" stroke="#d84a3a" stroke-width="1.2"/><rect x="766.8" y="130.4" width="7.0" height="47.1" fill="#ffffff" stroke="#d84a3a" stroke-width="1.2"/><rect x="766.8" y="420.0" width="7.0" height="90.0" fill="#d84a3a" opacity="0.75"/><line x1="787.8" y1="70.1" x2="787.8" y2="148.3" stroke="#d84a3a" stroke-width="1.2"/><rect x="784.3" y="95.8" width="7.0" height="35.2" fill="#ffffff" stroke="#d84a3a" stroke-width="1.2"/><rect x="784.3" y="422.8" width="7.0" height="87.2" fill="#d84a3a" opacity="0.75"/><line x1="805.2" y1="85.0" x2="805.2" y2="116.1" stroke="#d84a3a" stroke-width="1.2"/><rect x="801.7" y="107.7" width="7.0" height="1.4" fill="#ffffff" stroke="#d84a3a" stroke-width="1.2"/><rect x="801.7" y="441.4" width="7.0" height="68.6" fill="#d84a3a" opacity="0.75"/><line x1="822.6" y1="93.4" x2="822.6" y2="144.1" stroke="#168a50" stroke-width="1.2"/><rect x="819.1" y="113.7" width="7.0" height="22.7" fill="#168a50" stroke="#168a50" stroke-width="1.2"/><rect x="819.1" y="454.0" width="7.0" height="56.0" fill="#168a50" opacity="0.75"/><line x1="840.1" y1="125.6" x2="840.1" y2="156.6" stroke="#168a50" stroke-width="1.2"/><rect x="836.6" y="132.2" width="7.0" height="2.4" fill="#168a50" stroke="#168a50" stroke-width="1.2"/><rect x="836.6" y="469.7" width="7.0" height="40.3" fill="#168a50" opacity="0.75"/><line x1="857.5" y1="109.5" x2="857.5" y2="156.6" stroke="#d84a3a" stroke-width="1.2"/><rect x="854.0" y="111.9" width="7.0" height="23.9" fill="#ffffff" stroke="#d84a3a" stroke-width="1.2"/><rect x="854.0" y="468.9" width="7.0" height="41.1" fill="#d84a3a" opacity="0.75"/><line x1="875.0" y1="98.8" x2="875.0" y2="135.7" stroke="#168a50" stroke-width="1.2"/><rect x="871.5" y="111.9" width="7.0" height="20.9" fill="#168a50" stroke="#168a50" stroke-width="1.2"/><rect x="871.5" y="470.3" width="7.0" height="39.7" fill="#168a50" opacity="0.75"/><line x1="892.4" y1="120.2" x2="892.4" y2="145.9" stroke="#168a50" stroke-width="1.2"/><rect x="888.9" y="137.5" width="7.0" height="3.6" fill="#168a50" stroke="#168a50" stroke-width="1.2"/><rect x="888.9" y="480.8" width="7.0" height="29.2" fill="#168a50" opacity="0.75"/><line x1="909.8" y1="123.2" x2="909.8" y2="169.1" stroke="#168a50" stroke-width="1.2"/><rect x="906.3" y="139.3" width="7.0" height="29.2" fill="#168a50" stroke="#168a50" stroke-width="1.2"/><rect x="906.3" y="473.2" width="7.0" height="36.8" fill="#168a50" opacity="0.75"/><line x1="927.3" y1="102.3" x2="927.3" y2="189.4" stroke="#d84a3a" stroke-width="1.2"/><rect x="923.8" y="112.5" width="7.0" height="48.3" fill="#ffffff" stroke="#d84a3a" stroke-width="1.2"/><rect x="923.8" y="448.7" width="7.0" height="61.3" fill="#d84a3a" opacity="0.75"/><polyline points="72.7,217.1 90.2,228.1 107.6,237.3 125.0,248.3 142.5,258.4 159.9,266.8 177.4,273.5 194.8,281.5 212.2,288.6 229.7,294.3 247.1,297.7 264.6,300.0 282.0,302.6 299.4,302.8 316.9,303.5 334.3,302.8 351.8,302.0 369.2,300.8 386.6,297.5 404.1,292.1 421.5,285.7 439.0,278.8 456.4,273.9 473.8,268.5 491.3,260.3 508.7,256.4 526.2,254.5 543.6,247.2 561.0,240.0 578.5,234.9 595.9,230.5 613.4,225.3 630.8,223.4 648.2,225.0 665.7,227.1 683.1,229.4 700.6,232.6 718.0,230.4 735.4,230.3 752.9,229.5 770.3,227.4 787.8,222.4 805.2,216.2 822.6,211.6 840.1,208.6 857.5,201.8 875.0,194.8 892.4,192.9 909.8,191.8 927.3,185.6" fill="none" stroke="#7b3ff2" stroke-width="2.2"/><text x="72" y="64" font-size="12" fill="#7b3ff2">MA20</text><line x1="927.3" y1="46" x2="927.3" y2="510" stroke="#f0a000" stroke-width="1.6" stroke-dasharray="5 4"/><text x="922.3" y="62" text-anchor="end" font-size="12" fill="#b66d00">确认K</text><text x="72.7" y="544" text-anchor="middle" font-size="11" fill="#8a94a6">2026-06-05</text><text x="491.3" y="544" text-anchor="middle" font-size="11" fill="#8a94a6">2026-07-10</text><text x="927.3" y="544" text-anchor="middle" font-size="11" fill="#8a94a6">2026-08-14</text><line x1="64" y1="510" x2="936" y2="510" stroke="#dfe4ec"/></svg>