<svg xmlns="http://www.w3.org/2000/svg" width="960" height="560" viewBox="0 0 960 560"><rect width="100%" height="100%" fill="#ffffff"/><text x="64" y="26" font-size="18" font-weight="700" fill="#1c2738">成都路桥 002628 · 买点三·前低支撑确认</text><text x="936" y="26" text-anchor="end" font-size="13" fill="#6f7b8f">确认 2026-08-14</text><line x1="64" y1="46.0" x2="936" y2="46.0" stroke="#edf0f5"/><text x="56" y="50.0" text-anchor="end" font-size="11" fill="#8a94a6">5.87</text><line x1="64" y1="133.5" x2="936" y2="133.5" stroke="#edf0f5"/><text x="56" y="137.5" text-anchor="end" font-size="11" fill="#8a94a6">5.45</text><line x1="64" y1="221.0" x2="936" y2="221.0" stroke="#edf0f5"/><text x="56" y="225.0" text-anchor="end" font-size="11" fill="#8a94a6">5.03</text><line x1="64" y1="308.5" x2="936" y2="308.5" stroke="#edf0f5"/><text x="56" y="312.5" text-anchor="end" font-size="11" fill="#8a94a6">4.61</text><line x1="64" y1="396.0" x2="936" y2="396.0" stroke="#edf0f5"/><text x="56" y="400.0" text-anchor="end" font-size="11" fill="#8a94a6">4.19</text><line x1="64" y1="371.9" x2="936" y2="371.9" stroke="#2f6fed" stroke-width="2" stroke-dasharray="8 5"/><text x="932" y="365.9" text-anchor="end" font-size="12" fill="#2f6fed">邻近前低 4.31</text><line x1="73.5" y1="233.6" x2="73.5" y2="283.9" stroke="#d84a3a" stroke-width="1.2"/><rect x="70.0" y="248.2" width="7.0" height="16.8" fill="#ffffff" stroke="#d84a3a" stroke-width="1.2"/><rect x="70.0" y="480.4" width="7.0" height="29.6" fill="#d84a3a" opacity="0.75"/><line x1="92.4" y1="168.6" x2="92.4" y2="252.4" stroke="#168a50" stroke-width="1.2"/><rect x="88.9" y="237.8" width="7.0" height="8.4" fill="#168a50" stroke="#168a50" stroke-width="1.2"/><rect x="88.9" y="469.5" width="7.0" height="40.5" fill="#168a50" opacity="0.75"/><line x1="111.4" y1="206.3" x2="111.4" y2="256.6" stroke="#d84a3a" stroke-width="1.2"/><rect x="107.9" y="214.7" width="7.0" height="31.4" fill="#ffffff" stroke="#d84a3a" stroke-width="1.2"/><rect x="107.9" y="471.4" width="7.0" height="38.6" fill="#d84a3a" opacity="0.75"/><line x1="130.3" y1="212.6" x2="130.3" y2="242.0" stroke="#168a50" stroke-width="1.2"/><rect x="126.8" y="212.6" width="7.0" height="25.1" fill="#168a50" stroke="#168a50" stroke-width="1.2"/><rect x="126.8" y="480.2" width="7.0" height="29.8" fill="#168a50" opacity="0.75"/><line x1="149.3" y1="231.5" x2="149.3" y2="269.2" stroke="#168a50" stroke-width="1.2"/><rect x="145.8" y="231.5" width="7.0" height="31.4" fill="#168a50" stroke="#168a50" stroke-width="1.2"/><rect x="145.8" y="481.2" width="7.0" height="28.8" fill="#168a50" opacity="0.75"/><line x1="168.3" y1="221.0" x2="168.3" y2="290.1" stroke="#d84a3a" stroke-width="1.2"/><rect x="164.8" y="244.0" width="7.0" height="23.0" fill="#ffffff" stroke="#d84a3a" stroke-width="1.2"/><rect x="164.8" y="464.8" width="7.0" height="45.2" fill="#d84a3a" opacity="0.75"/><line x1="187.2" y1="233.6" x2="187.2" y2="302.7" stroke="#d84a3a" stroke-width="1.2"/><rect x="183.7" y="242.0" width="7.0" height="8.4" fill="#ffffff" stroke="#d84a3a" stroke-width="1.2"/><rect x="183.7" y="467.5" width="7.0" height="42.5" fill="#d84a3a" opacity="0.75"/><line x1="206.2" y1="237.8" x2="206.2" y2="271.3" stroke="#168a50" stroke-width="1.2"/><rect x="202.7" y="242.0" width="7.0" height="16.8" fill="#168a50" stroke="#168a50" stroke-width="1.2"/><rect x="202.7" y="483.3" width="7.0" height="26.7" fill="#168a50" opacity="0.75"/><line x1="225.1" y1="256.6" x2="225.1" y2="296.4" stroke="#168a50" stroke-width="1.2"/><rect x="221.6" y="267.1" width="7.0" height="4.2" fill="#168a50" stroke="#168a50" stroke-width="1.2"/><rect x="221.6" y="479.1" width="7.0" height="30.9" fill="#168a50" opacity="0.75"/><line x1="244.1" y1="273.4" x2="244.1" y2="353.0" stroke="#168a50" stroke-width="1.2"/><rect x="240.6" y="277.6" width="7.0" height="58.7" fill="#168a50" stroke="#168a50" stroke-width="1.2"/><rect x="240.6" y="463.1" width="7.0" height="46.9" fill="#168a50" opacity="0.75"/><line x1="263.0" y1="336.2" x2="263.0" y2="371.9" stroke="#168a50" stroke-width="1.2"/><rect x="259.5" y="346.7" width="7.0" height="2.1" fill="#168a50" stroke="#168a50" stroke-width="1.2"/><rect x="259.5" y="473.1" width="7.0" height="36.9" fill="#168a50" opacity="0.75"/><line x1="282.0" y1="256.6" x2="282.0" y2="361.4" stroke="#d84a3a" stroke-width="1.2"/><rect x="278.5" y="256.6" width="7.0" height="85.9" fill="#ffffff" stroke="#d84a3a" stroke-width="1.2"/><rect x="278.5" y="474.2" width="7.0" height="35.8" fill="#d84a3a" opacity="0.75"/><line x1="301.0" y1="154.0" x2="301.0" y2="254.5" stroke="#d84a3a" stroke-width="1.2"/><rect x="297.5" y="154.0" width="7.0" height="81.7" fill="#ffffff" stroke="#d84a3a" stroke-width="1.2"/><rect x="297.5" y="420.0" width="7.0" height="90.0" fill="#d84a3a" opacity="0.75"/><line x1="319.9" y1="120.4" x2="319.9" y2="181.2" stroke="#d84a3a" stroke-width="1.2"/><rect x="316.4" y="139.3" width="7.0" height="12.6" fill="#ffffff" stroke="#d84a3a" stroke-width="1.2"/><rect x="316.4" y="421.6" width="7.0" height="88.4" fill="#d84a3a" opacity="0.75"/><line x1="338.9" y1="70.1" x2="338.9" y2="151.9" stroke="#168a50" stroke-width="1.2"/><rect x="335.4" y="128.8" width="7.0" height="12.6" fill="#168a50" stroke="#168a50" stroke-width="1.2"/><rect x="335.4" y="433.3" width="7.0" height="76.7" fill="#168a50" opacity="0.75"/><line x1="357.8" y1="112.0" x2="357.8" y2="158.1" stroke="#168a50" stroke-width="1.2"/><rect x="354.3" y="133.0" width="7.0" height="10.5" fill="#168a50" stroke="#168a50" stroke-width="1.2"/><rect x="354.3" y="443.3" width="7.0" height="66.7" fill="#168a50" opacity="0.75"/><line x1="376.8" y1="124.6" x2="376.8" y2="179.1" stroke="#168a50" stroke-width="1.2"/><rect x="373.3" y="128.8" width="7.0" height="37.7" fill="#168a50" stroke="#168a50" stroke-width="1.2"/><rect x="373.3" y="458.5" width="7.0" height="51.5" fill="#168a50" opacity="0.75"/><line x1="395.7" y1="116.2" x2="395.7" y2="179.1" stroke="#d84a3a" stroke-width="1.2"/><rect x="392.2" y="160.2" width="7.0" height="6.3" fill="#ffffff" stroke="#d84a3a" stroke-width="1.2"/><rect x="392.2" y="472.3" width="7.0" height="37.7" fill="#d84a3a" opacity="0.75"/><line x1="414.7" y1="147.7" x2="414.7" y2="187.5" stroke="#168a50" stroke-width="1.2"/><rect x="411.2" y="164.4" width="7.0" height="18.9" fill="#168a50" stroke="#168a50" stroke-width="1.2"/><rect x="411.2" y="476.1" width="7.0" height="33.9" fill="#168a50" opacity="0.75"/><line x1="433.7" y1="154.0" x2="433.7" y2="193.8" stroke="#d84a3a" stroke-width="1.2"/><rect x="430.2" y="170.7" width="7.0" height="14.7" fill="#ffffff" stroke="#d84a3a" stroke-width="1.2"/><rect x="430.2" y="481.0" width="7.0" height="29.0" fill="#d84a3a" opacity="0.75"/><line x1="452.6" y1="145.6" x2="452.6" y2="191.7" stroke="#168a50" stroke-width="1.2"/><rect x="449.1" y="160.2" width="7.0" height="31.4" fill="#168a50" stroke="#168a50" stroke-width="1.2"/><rect x="449.1" y="473.3" width="7.0" height="36.7" fill="#168a50" opacity="0.75"/><line x1="471.6" y1="200.0" x2="471.6" y2="300.6" stroke="#168a50" stroke-width="1.2"/><rect x="468.1" y="202.1" width="7.0" height="98.5" fill="#168a50" stroke="#168a50" stroke-width="1.2"/><rect x="468.1" y="449.1" width="7.0" height="60.9" fill="#168a50" opacity="0.75"/><line x1="490.5" y1="202.1" x2="490.5" y2="344.6" stroke="#d84a3a" stroke-width="1.2"/><rect x="487.0" y="202.1" width="7.0" height="136.2" fill="#ffffff" stroke="#d84a3a" stroke-width="1.2"/><rect x="487.0" y="434.9" width="7.0" height="75.1" fill="#d84a3a" opacity="0.75"/><line x1="509.5" y1="137.2" x2="509.5" y2="258.7" stroke="#168a50" stroke-width="1.2"/><rect x="506.0" y="195.9" width="7.0" height="10.5" fill="#168a50" stroke="#168a50" stroke-width="1.2"/><rect x="506.0" y="422.6" width="7.0" height="87.4" fill="#168a50" opacity="0.75"/><line x1="528.4" y1="177.0" x2="528.4" y2="258.7" stroke="#d84a3a" stroke-width="1.2"/><rect x="524.9" y="218.9" width="7.0" height="1.4" fill="#ffffff" stroke="#d84a3a" stroke-width="1.2"/><rect x="524.9" y="437.0" width="7.0" height="73.0" fill="#d84a3a" opacity="0.75"/><line x1="547.4" y1="185.4" x2="547.4" y2="256.6" stroke="#168a50" stroke-width="1.2"/><rect x="543.9" y="185.4" width="7.0" height="60.8" fill="#168a50" stroke="#168a50" stroke-width="1.2"/><rect x="543.9" y="442.3" width="7.0" height="67.7" fill="#168a50" opacity="0.75"/><line x1="566.3" y1="193.8" x2="566.3" y2="327.9" stroke="#168a50" stroke-width="1.2"/><rect x="562.8" y="246.1" width="7.0" height="35.6" fill="#168a50" stroke="#168a50" stroke-width="1.2"/><rect x="562.8" y="447.5" width="7.0" height="62.5" fill="#168a50" opacity="0.75"/><line x1="585.3" y1="258.7" x2="585.3" y2="369.8" stroke="#168a50" stroke-width="1.2"/><rect x="581.8" y="258.7" width="7.0" height="62.9" fill="#168a50" stroke="#168a50" stroke-width="1.2"/><rect x="581.8" y="450.6" width="7.0" height="59.4" fill="#168a50" opacity="0.75"/><line x1="604.3" y1="311.1" x2="604.3" y2="346.7" stroke="#168a50" stroke-width="1.2"/><rect x="600.8" y="330.0" width="7.0" height="4.2" fill="#168a50" stroke="#168a50" stroke-width="1.2"/><rect x="600.8" y="474.8" width="7.0" height="35.2" fill="#168a50" opacity="0.75"/><line x1="623.2" y1="321.6" x2="623.2" y2="344.6" stroke="#d84a3a" stroke-width="1.2"/><rect x="619.7" y="321.6" width="7.0" height="21.0" fill="#ffffff" stroke="#d84a3a" stroke-width="1.2"/><rect x="619.7" y="481.3" width="7.0" height="28.7" fill="#d84a3a" opacity="0.75"/><line x1="642.2" y1="330.0" x2="642.2" y2="361.4" stroke="#168a50" stroke-width="1.2"/><rect x="638.7" y="332.1" width="7.0" height="29.3" fill="#168a50" stroke="#168a50" stroke-width="1.2"/><rect x="638.7" y="484.5" width="7.0" height="25.5" fill="#168a50" opacity="0.75"/><line x1="661.1" y1="336.2" x2="661.1" y2="371.9" stroke="#d84a3a" stroke-width="1.2"/><rect x="657.6" y="342.5" width="7.0" height="16.8" fill="#ffffff" stroke="#d84a3a" stroke-width="1.2"/><rect x="657.6" y="488.2" width="7.0" height="21.8" fill="#d84a3a" opacity="0.75"/><line x1="680.1" y1="315.3" x2="680.1" y2="357.2" stroke="#d84a3a" stroke-width="1.2"/><rect x="676.6" y="334.1" width="7.0" height="18.9" fill="#ffffff" stroke="#d84a3a" stroke-width="1.2"/><rect x="676.6" y="487.1" width="7.0" height="22.9" fill="#d84a3a" opacity="0.75"/><line x1="699.0" y1="321.6" x2="699.0" y2="346.7" stroke="#d84a3a" stroke-width="1.2"/><rect x="695.5" y="325.8" width="7.0" height="1.4" fill="#ffffff" stroke="#d84a3a" stroke-width="1.2"/><rect x="695.5" y="483.1" width="7.0" height="26.9" fill="#d84a3a" opacity="0.75"/><line x1="718.0" y1="323.7" x2="718.0" y2="359.3" stroke="#168a50" stroke-width="1.2"/><rect x="714.5" y="334.1" width="7.0" height="23.0" fill="#168a50" stroke="#168a50" stroke-width="1.2"/><rect x="714.5" y="477.4" width="7.0" height="32.6" fill="#168a50" opacity="0.75"/><line x1="737.0" y1="334.1" x2="737.0" y2="353.0" stroke="#d84a3a" stroke-width="1.2"/><rect x="733.5" y="340.4" width="7.0" height="8.4" fill="#ffffff" stroke="#d84a3a" stroke-width="1.2"/><rect x="733.5" y="487.6" width="7.0" height="22.4" fill="#d84a3a" opacity="0.75"/><line x1="755.9" y1="311.1" x2="755.9" y2="340.4" stroke="#d84a3a" stroke-width="1.2"/><rect x="752.4" y="330.0" width="7.0" height="4.2" fill="#ffffff" stroke="#d84a3a" stroke-width="1.2"/><rect x="752.4" y="488.9" width="7.0" height="21.1" fill="#d84a3a" opacity="0.75"/><line x1="774.9" y1="309.0" x2="774.9" y2="338.3" stroke="#d84a3a" stroke-width="1.2"/><rect x="771.4" y="319.5" width="7.0" height="10.5" fill="#ffffff" stroke="#d84a3a" stroke-width="1.2"/><rect x="771.4" y="478.8" width="7.0" height="31.2" fill="#d84a3a" opacity="0.75"/><line x1="793.8" y1="298.5" x2="793.8" y2="321.6" stroke="#d84a3a" stroke-width="1.2"/><rect x="790.3" y="306.9" width="7.0" height="12.6" fill="#ffffff" stroke="#d84a3a" stroke-width="1.2"/><rect x="790.3" y="484.9" width="7.0" height="25.1" fill="#d84a3a" opacity="0.75"/><line x1="812.8" y1="244.0" x2="812.8" y2="317.4" stroke="#d84a3a" stroke-width="1.2"/><rect x="809.3" y="248.2" width="7.0" height="62.9" fill="#ffffff" stroke="#d84a3a" stroke-width="1.2"/><rect x="809.3" y="465.1" width="7.0" height="44.9" fill="#d84a3a" opacity="0.75"/><line x1="831.7" y1="231.5" x2="831.7" y2="283.9" stroke="#d84a3a" stroke-width="1.2"/><rect x="828.2" y="244.0" width="7.0" height="2.1" fill="#ffffff" stroke="#d84a3a" stroke-width="1.2"/><rect x="828.2" y="474.9" width="7.0" height="35.1" fill="#d84a3a" opacity="0.75"/><line x1="850.7" y1="195.9" x2="850.7" y2="248.2" stroke="#d84a3a" stroke-width="1.2"/><rect x="847.2" y="233.6" width="7.0" height="10.5" fill="#ffffff" stroke="#d84a3a" stroke-width="1.2"/><rect x="847.2" y="471.7" width="7.0" height="38.3" fill="#d84a3a" opacity="0.75"/><line x1="869.7" y1="200.0" x2="869.7" y2="250.3" stroke="#d84a3a" stroke-width="1.2"/><rect x="866.2" y="210.5" width="7.0" height="23.0" fill="#ffffff" stroke="#d84a3a" stroke-width="1.2"/><rect x="866.2" y="472.3" width="7.0" height="37.7" fill="#d84a3a" opacity="0.75"/><line x1="888.6" y1="187.5" x2="888.6" y2="216.8" stroke="#d84a3a" stroke-width="1.2"/><rect x="885.1" y="195.9" width="7.0" height="12.6" fill="#ffffff" stroke="#d84a3a" stroke-width="1.2"/><rect x="885.1" y="465.8" width="7.0" height="44.2" fill="#d84a3a" opacity="0.75"/><line x1="907.6" y1="198.0" x2="907.6" y2="225.2" stroke="#168a50" stroke-width="1.2"/><rect x="904.1" y="198.0" width="7.0" height="18.9" fill="#168a50" stroke="#168a50" stroke-width="1.2"/><rect x="904.1" y="474.7" width="7.0" height="35.3" fill="#168a50" opacity="0.75"/><line x1="926.5" y1="109.9" x2="926.5" y2="223.1" stroke="#d84a3a" stroke-width="1.2"/><rect x="923.0" y="109.9" width="7.0" height="102.7" fill="#ffffff" stroke="#d84a3a" stroke-width="1.2"/><rect x="923.0" y="428.2" width="7.0" height="81.8" fill="#d84a3a" opacity="0.75"/><polyline points="73.5,174.7 92.4,184.1 111.4,190.9 130.3,198.6 149.3,207.1 168.3,211.7 187.2,219.1 206.2,226.0 225.1,231.7 244.1,239.2 263.0,247.7 282.0,248.6 301.0,245.8 319.9,241.7 338.9,238.6 357.8,234.7 376.8,232.1 395.7,228.0 414.7,225.7 433.7,221.3 452.6,218.5 471.6,221.2 490.5,220.6 509.5,219.0 528.4,216.8 547.4,216.9 566.3,218.9 585.3,222.0 604.3,225.2 623.2,224.5 642.2,225.1 661.1,229.4 680.1,238.4 699.0,247.7 718.0,258.5 737.0,268.4 755.9,276.5 774.9,284.5 793.8,290.7 812.8,294.5 831.7,297.2 850.7,293.8 869.7,294.2 888.6,293.7 907.6,293.6 926.5,286.8" fill="none" stroke="#7b3ff2" stroke-width="2.2"/><text x="72" y="64" font-size="12" fill="#7b3ff2">MA20</text><line x1="926.5" y1="46" x2="926.5" y2="510" stroke="#f0a000" stroke-width="1.6" stroke-dasharray="5 4"/><text x="921.5" y="62" text-anchor="end" font-size="12" fill="#b66d00">确认K</text><text x="73.5" y="544" text-anchor="middle" font-size="11" fill="#8a94a6">2026-06-11</text><text x="490.5" y="544" text-anchor="middle" font-size="11" fill="#8a94a6">2026-07-14</text><text x="926.5" y="544" text-anchor="middle" font-size="11" fill="#8a94a6">2026-08-14</text><line x1="64" y1="510" x2="936" y2="510" stroke="#dfe4ec"/></svg>