<svg xmlns="http://www.w3.org/2000/svg" width="960" height="560" viewBox="0 0 960 560"><rect width="100%" height="100%" fill="#ffffff"/><text x="64" y="26" font-size="18" font-weight="700" fill="#1c2738">中天科技 600522 · 买点三·前低支撑确认</text><text x="936" y="26" text-anchor="end" font-size="13" fill="#6f7b8f">确认 2026-08-14</text><line x1="64" y1="46.0" x2="936" y2="46.0" stroke="#edf0f5"/><text x="56" y="50.0" text-anchor="end" font-size="11" fill="#8a94a6">71.11</text><line x1="64" y1="133.5" x2="936" y2="133.5" stroke="#edf0f5"/><text x="56" y="137.5" text-anchor="end" font-size="11" fill="#8a94a6">59.27</text><line x1="64" y1="221.0" x2="936" y2="221.0" stroke="#edf0f5"/><text x="56" y="225.0" text-anchor="end" font-size="11" fill="#8a94a6">47.43</text><line x1="64" y1="308.5" x2="936" y2="308.5" stroke="#edf0f5"/><text x="56" y="312.5" text-anchor="end" font-size="11" fill="#8a94a6">35.59</text><line x1="64" y1="396.0" x2="936" y2="396.0" stroke="#edf0f5"/><text x="56" y="400.0" text-anchor="end" font-size="11" fill="#8a94a6">23.75</text><line x1="64" y1="370.8" x2="936" y2="370.8" stroke="#2f6fed" stroke-width="2" stroke-dasharray="8 5"/><text x="932" y="364.8" text-anchor="end" font-size="12" fill="#2f6fed">邻近前低 27.16</text><line x1="68.7" y1="344.4" x2="68.7" y2="362.1" stroke="#168a50" stroke-width="1.2"/><rect x="66.0" y="344.4" width="5.4" height="13.5" fill="#168a50" stroke="#168a50" stroke-width="1.2"/><rect x="66.0" y="482.2" width="5.4" height="27.8" fill="#168a50" opacity="0.75"/><line x1="78.1" y1="347.2" x2="78.1" y2="358.3" stroke="#d84a3a" stroke-width="1.2"/><rect x="75.3" y="356.8" width="5.4" height="1.4" fill="#ffffff" stroke="#d84a3a" stroke-width="1.2"/><rect x="75.3" y="485.0" width="5.4" height="25.0" fill="#d84a3a" opacity="0.75"/><line x1="87.4" y1="340.7" x2="87.4" y2="357.3" stroke="#d84a3a" stroke-width="1.2"/><rect x="84.7" y="346.8" width="5.4" height="8.9" fill="#ffffff" stroke="#d84a3a" stroke-width="1.2"/><rect x="84.7" y="475.6" width="5.4" height="34.4" fill="#d84a3a" opacity="0.75"/><line x1="96.8" y1="338.7" x2="96.8" y2="351.3" stroke="#168a50" stroke-width="1.2"/><rect x="94.1" y="345.7" width="5.4" height="4.2" fill="#168a50" stroke="#168a50" stroke-width="1.2"/><rect x="94.1" y="483.7" width="5.4" height="26.3" fill="#168a50" opacity="0.75"/><line x1="106.2" y1="343.1" x2="106.2" y2="355.5" stroke="#168a50" stroke-width="1.2"/><rect x="103.5" y="344.5" width="5.4" height="2.1" fill="#168a50" stroke="#168a50" stroke-width="1.2"/><rect x="103.5" y="476.4" width="5.4" height="33.6" fill="#168a50" opacity="0.75"/><line x1="115.6" y1="335.6" x2="115.6" y2="356.1" stroke="#d84a3a" stroke-width="1.2"/><rect x="112.9" y="341.4" width="5.4" height="8.3" fill="#ffffff" stroke="#d84a3a" stroke-width="1.2"/><rect x="112.9" y="471.0" width="5.4" height="39.0" fill="#d84a3a" opacity="0.75"/><line x1="124.9" y1="341.4" x2="124.9" y2="355.5" stroke="#168a50" stroke-width="1.2"/><rect x="122.2" y="341.6" width="5.4" height="11.7" fill="#168a50" stroke="#168a50" stroke-width="1.2"/><rect x="122.2" y="464.8" width="5.4" height="45.2" fill="#168a50" opacity="0.75"/><line x1="134.3" y1="354.5" x2="134.3" y2="364.1" stroke="#168a50" stroke-width="1.2"/><rect x="131.6" y="356.1" width="5.4" height="6.6" fill="#168a50" stroke="#168a50" stroke-width="1.2"/><rect x="131.6" y="472.0" width="5.4" height="38.0" fill="#168a50" opacity="0.75"/><line x1="143.7" y1="356.0" x2="143.7" y2="367.4" stroke="#168a50" stroke-width="1.2"/><rect x="141.0" y="360.6" width="5.4" height="3.5" fill="#168a50" stroke="#168a50" stroke-width="1.2"/><rect x="141.0" y="479.8" width="5.4" height="30.2" fill="#168a50" opacity="0.75"/><line x1="153.1" y1="358.1" x2="153.1" y2="368.9" stroke="#168a50" stroke-width="1.2"/><rect x="150.4" y="364.6" width="5.4" height="3.4" fill="#168a50" stroke="#168a50" stroke-width="1.2"/><rect x="150.4" y="482.6" width="5.4" height="27.4" fill="#168a50" opacity="0.75"/><line x1="162.5" y1="364.1" x2="162.5" y2="370.8" stroke="#d84a3a" stroke-width="1.2"/><rect x="159.7" y="366.5" width="5.4" height="1.4" fill="#ffffff" stroke="#d84a3a" stroke-width="1.2"/><rect x="159.7" y="487.4" width="5.4" height="22.6" fill="#d84a3a" opacity="0.75"/><line x1="171.8" y1="362.8" x2="171.8" y2="369.3" stroke="#d84a3a" stroke-width="1.2"/><rect x="169.1" y="365.5" width="5.4" height="1.4" fill="#ffffff" stroke="#d84a3a" stroke-width="1.2"/><rect x="169.1" y="481.8" width="5.4" height="28.2" fill="#d84a3a" opacity="0.75"/><line x1="181.2" y1="344.7" x2="181.2" y2="360.4" stroke="#d84a3a" stroke-width="1.2"/><rect x="178.5" y="344.7" width="5.4" height="15.2" fill="#ffffff" stroke="#d84a3a" stroke-width="1.2"/><rect x="178.5" y="470.6" width="5.4" height="39.4" fill="#d84a3a" opacity="0.75"/><line x1="190.6" y1="330.5" x2="190.6" y2="346.0" stroke="#d84a3a" stroke-width="1.2"/><rect x="187.9" y="333.7" width="5.4" height="10.6" fill="#ffffff" stroke="#d84a3a" stroke-width="1.2"/><rect x="187.9" y="440.6" width="5.4" height="69.4" fill="#d84a3a" opacity="0.75"/><line x1="200.0" y1="316.0" x2="200.0" y2="333.3" stroke="#d84a3a" stroke-width="1.2"/><rect x="197.2" y="316.1" width="5.4" height="16.9" fill="#ffffff" stroke="#d84a3a" stroke-width="1.2"/><rect x="197.2" y="457.3" width="5.4" height="52.7" fill="#d84a3a" opacity="0.75"/><line x1="209.3" y1="314.5" x2="209.3" y2="328.1" stroke="#d84a3a" stroke-width="1.2"/><rect x="206.6" y="321.7" width="5.4" height="1.4" fill="#ffffff" stroke="#d84a3a" stroke-width="1.2"/><rect x="206.6" y="459.9" width="5.4" height="50.1" fill="#d84a3a" opacity="0.75"/><line x1="218.7" y1="318.5" x2="218.7" y2="332.7" stroke="#168a50" stroke-width="1.2"/><rect x="216.0" y="322.2" width="5.4" height="5.8" fill="#168a50" stroke="#168a50" stroke-width="1.2"/><rect x="216.0" y="473.2" width="5.4" height="36.8" fill="#168a50" opacity="0.75"/><line x1="228.1" y1="303.5" x2="228.1" y2="320.5" stroke="#d84a3a" stroke-width="1.2"/><rect x="225.4" y="309.0" width="5.4" height="11.0" fill="#ffffff" stroke="#d84a3a" stroke-width="1.2"/><rect x="225.4" y="450.5" width="5.4" height="59.5" fill="#d84a3a" opacity="0.75"/><line x1="237.5" y1="304.0" x2="237.5" y2="322.2" stroke="#168a50" stroke-width="1.2"/><rect x="234.7" y="309.0" width="5.4" height="5.8" fill="#168a50" stroke="#168a50" stroke-width="1.2"/><rect x="234.7" y="463.6" width="5.4" height="46.4" fill="#168a50" opacity="0.75"/><line x1="246.8" y1="318.6" x2="246.8" y2="327.1" stroke="#d84a3a" stroke-width="1.2"/><rect x="244.1" y="320.1" width="5.4" height="1.4" fill="#ffffff" stroke="#d84a3a" stroke-width="1.2"/><rect x="244.1" y="478.7" width="5.4" height="31.3" fill="#d84a3a" opacity="0.75"/><line x1="256.2" y1="319.6" x2="256.2" y2="333.2" stroke="#168a50" stroke-width="1.2"/><rect x="253.5" y="320.0" width="5.4" height="8.7" fill="#168a50" stroke="#168a50" stroke-width="1.2"/><rect x="253.5" y="472.8" width="5.4" height="37.2" fill="#168a50" opacity="0.75"/><line x1="265.6" y1="313.0" x2="265.6" y2="324.6" stroke="#d84a3a" stroke-width="1.2"/><rect x="262.9" y="315.6" width="5.4" height="9.0" fill="#ffffff" stroke="#d84a3a" stroke-width="1.2"/><rect x="262.9" y="468.9" width="5.4" height="41.1" fill="#d84a3a" opacity="0.75"/><line x1="275.0" y1="289.8" x2="275.0" y2="314.8" stroke="#d84a3a" stroke-width="1.2"/><rect x="272.2" y="289.8" width="5.4" height="16.9" fill="#ffffff" stroke="#d84a3a" stroke-width="1.2"/><rect x="272.2" y="459.3" width="5.4" height="50.7" fill="#d84a3a" opacity="0.75"/><line x1="284.3" y1="269.3" x2="284.3" y2="291.1" stroke="#d84a3a" stroke-width="1.2"/><rect x="281.6" y="271.2" width="5.4" height="20.0" fill="#ffffff" stroke="#d84a3a" stroke-width="1.2"/><rect x="281.6" y="455.3" width="5.4" height="54.7" fill="#d84a3a" opacity="0.75"/><line x1="293.7" y1="241.0" x2="293.7" y2="257.5" stroke="#168a50" stroke-width="1.2"/><rect x="291.0" y="241.0" width="5.4" height="8.3" fill="#168a50" stroke="#168a50" stroke-width="1.2"/><rect x="291.0" y="437.2" width="5.4" height="72.8" fill="#168a50" opacity="0.75"/><line x1="303.1" y1="232.2" x2="303.1" y2="253.8" stroke="#d84a3a" stroke-width="1.2"/><rect x="300.4" y="247.7" width="5.4" height="1.4" fill="#ffffff" stroke="#d84a3a" stroke-width="1.2"/><rect x="300.4" y="434.9" width="5.4" height="75.1" fill="#d84a3a" opacity="0.75"/><line x1="312.5" y1="248.7" x2="312.5" y2="259.1" stroke="#d84a3a" stroke-width="1.2"/><rect x="309.8" y="251.2" width="5.4" height="7.8" fill="#ffffff" stroke="#d84a3a" stroke-width="1.2"/><rect x="309.8" y="460.0" width="5.4" height="50.0" fill="#d84a3a" opacity="0.75"/><line x1="321.8" y1="233.8" x2="321.8" y2="250.6" stroke="#168a50" stroke-width="1.2"/><rect x="319.1" y="244.6" width="5.4" height="3.0" fill="#168a50" stroke="#168a50" stroke-width="1.2"/><rect x="319.1" y="444.3" width="5.4" height="65.7" fill="#168a50" opacity="0.75"/><line x1="331.2" y1="241.6" x2="331.2" y2="277.0" stroke="#168a50" stroke-width="1.2"/><rect x="328.5" y="245.5" width="5.4" height="25.1" fill="#168a50" stroke="#168a50" stroke-width="1.2"/><rect x="328.5" y="446.0" width="5.4" height="64.0" fill="#168a50" opacity="0.75"/><line x1="340.6" y1="243.2" x2="340.6" y2="263.8" stroke="#d84a3a" stroke-width="1.2"/><rect x="337.9" y="248.6" width="5.4" height="15.2" fill="#ffffff" stroke="#d84a3a" stroke-width="1.2"/><rect x="337.9" y="452.8" width="5.4" height="57.2" fill="#d84a3a" opacity="0.75"/><line x1="350.0" y1="241.6" x2="350.0" y2="268.3" stroke="#d84a3a" stroke-width="1.2"/><rect x="347.3" y="244.2" width="5.4" height="11.5" fill="#ffffff" stroke="#d84a3a" stroke-width="1.2"/><rect x="347.3" y="453.9" width="5.4" height="56.1" fill="#d84a3a" opacity="0.75"/><line x1="359.4" y1="223.1" x2="359.4" y2="249.8" stroke="#d84a3a" stroke-width="1.2"/><rect x="356.6" y="237.9" width="5.4" height="6.4" fill="#ffffff" stroke="#d84a3a" stroke-width="1.2"/><rect x="356.6" y="450.4" width="5.4" height="59.6" fill="#d84a3a" opacity="0.75"/><line x1="368.7" y1="235.2" x2="368.7" y2="264.2" stroke="#168a50" stroke-width="1.2"/><rect x="366.0" y="240.9" width="5.4" height="22.9" fill="#168a50" stroke="#168a50" stroke-width="1.2"/><rect x="366.0" y="455.9" width="5.4" height="54.1" fill="#168a50" opacity="0.75"/><line x1="378.1" y1="249.2" x2="378.1" y2="259.5" stroke="#d84a3a" stroke-width="1.2"/><rect x="375.4" y="249.6" width="5.4" height="8.4" fill="#ffffff" stroke="#d84a3a" stroke-width="1.2"/><rect x="375.4" y="470.3" width="5.4" height="39.7" fill="#d84a3a" opacity="0.75"/><line x1="387.5" y1="243.4" x2="387.5" y2="264.5" stroke="#168a50" stroke-width="1.2"/><rect x="384.8" y="246.1" width="5.4" height="10.3" fill="#168a50" stroke="#168a50" stroke-width="1.2"/><rect x="384.8" y="460.7" width="5.4" height="49.3" fill="#168a50" opacity="0.75"/><line x1="396.9" y1="262.7" x2="396.9" y2="283.3" stroke="#168a50" stroke-width="1.2"/><rect x="394.1" y="263.1" width="5.4" height="11.2" fill="#168a50" stroke="#168a50" stroke-width="1.2"/><rect x="394.1" y="458.6" width="5.4" height="51.4" fill="#168a50" opacity="0.75"/><line x1="406.2" y1="271.2" x2="406.2" y2="286.6" stroke="#168a50" stroke-width="1.2"/><rect x="403.5" y="279.3" width="5.4" height="5.5" fill="#168a50" stroke="#168a50" stroke-width="1.2"/><rect x="403.5" y="471.0" width="5.4" height="39.0" fill="#168a50" opacity="0.75"/><line x1="415.6" y1="272.4" x2="415.6" y2="294.5" stroke="#d84a3a" stroke-width="1.2"/><rect x="412.9" y="274.0" width="5.4" height="9.4" fill="#ffffff" stroke="#d84a3a" stroke-width="1.2"/><rect x="412.9" y="467.9" width="5.4" height="42.1" fill="#d84a3a" opacity="0.75"/><line x1="425.0" y1="251.2" x2="425.0" y2="286.3" stroke="#d84a3a" stroke-width="1.2"/><rect x="422.3" y="261.7" width="5.4" height="8.8" fill="#ffffff" stroke="#d84a3a" stroke-width="1.2"/><rect x="422.3" y="442.4" width="5.4" height="67.6" fill="#d84a3a" opacity="0.75"/><line x1="434.4" y1="261.9" x2="434.4" y2="284.7" stroke="#168a50" stroke-width="1.2"/><rect x="431.6" y="263.1" width="5.4" height="19.3" fill="#168a50" stroke="#168a50" stroke-width="1.2"/><rect x="431.6" y="466.8" width="5.4" height="43.2" fill="#168a50" opacity="0.75"/><line x1="443.7" y1="253.2" x2="443.7" y2="285.0" stroke="#d84a3a" stroke-width="1.2"/><rect x="441.0" y="256.5" width="5.4" height="28.5" fill="#ffffff" stroke="#d84a3a" stroke-width="1.2"/><rect x="441.0" y="438.8" width="5.4" height="71.2" fill="#d84a3a" opacity="0.75"/><line x1="453.1" y1="226.2" x2="453.1" y2="252.7" stroke="#d84a3a" stroke-width="1.2"/><rect x="450.4" y="241.0" width="5.4" height="8.1" fill="#ffffff" stroke="#d84a3a" stroke-width="1.2"/><rect x="450.4" y="436.5" width="5.4" height="73.5" fill="#d84a3a" opacity="0.75"/><line x1="462.5" y1="224.8" x2="462.5" y2="249.7" stroke="#d84a3a" stroke-width="1.2"/><rect x="459.8" y="233.0" width="5.4" height="16.6" fill="#ffffff" stroke="#d84a3a" stroke-width="1.2"/><rect x="459.8" y="447.8" width="5.4" height="62.2" fill="#d84a3a" opacity="0.75"/><line x1="471.9" y1="208.6" x2="471.9" y2="241.3" stroke="#d84a3a" stroke-width="1.2"/><rect x="469.2" y="233.0" width="5.4" height="7.3" fill="#ffffff" stroke="#d84a3a" stroke-width="1.2"/><rect x="469.2" y="438.7" width="5.4" height="71.3" fill="#d84a3a" opacity="0.75"/><line x1="481.2" y1="198.9" x2="481.2" y2="248.3" stroke="#d84a3a" stroke-width="1.2"/><rect x="478.5" y="207.4" width="5.4" height="40.9" fill="#ffffff" stroke="#d84a3a" stroke-width="1.2"/><rect x="478.5" y="420.0" width="5.4" height="90.0" fill="#d84a3a" opacity="0.75"/><line x1="490.6" y1="170.8" x2="490.6" y2="214.6" stroke="#d84a3a" stroke-width="1.2"/><rect x="487.9" y="170.8" width="5.4" height="29.2" fill="#ffffff" stroke="#d84a3a" stroke-width="1.2"/><rect x="487.9" y="425.0" width="5.4" height="85.0" fill="#d84a3a" opacity="0.75"/><line x1="500.0" y1="175.9" x2="500.0" y2="210.0" stroke="#168a50" stroke-width="1.2"/><rect x="497.3" y="185.4" width="5.4" height="17.0" fill="#168a50" stroke="#168a50" stroke-width="1.2"/><rect x="497.3" y="442.7" width="5.4" height="67.3" fill="#168a50" opacity="0.75"/><line x1="509.4" y1="196.5" x2="509.4" y2="218.3" stroke="#168a50" stroke-width="1.2"/><rect x="506.7" y="206.2" width="5.4" height="3.1" fill="#168a50" stroke="#168a50" stroke-width="1.2"/><rect x="506.7" y="459.2" width="5.4" height="50.8" fill="#168a50" opacity="0.75"/><line x1="518.8" y1="187.7" x2="518.8" y2="214.3" stroke="#168a50" stroke-width="1.2"/><rect x="516.0" y="198.6" width="5.4" height="15.7" fill="#168a50" stroke="#168a50" stroke-width="1.2"/><rect x="516.0" y="452.1" width="5.4" height="57.9" fill="#168a50" opacity="0.75"/><line x1="528.1" y1="193.1" x2="528.1" y2="227.0" stroke="#d84a3a" stroke-width="1.2"/><rect x="525.4" y="193.9" width="5.4" height="10.2" fill="#ffffff" stroke="#d84a3a" stroke-width="1.2"/><rect x="525.4" y="455.6" width="5.4" height="54.4" fill="#d84a3a" opacity="0.75"/><line x1="537.5" y1="165.8" x2="537.5" y2="196.5" stroke="#d84a3a" stroke-width="1.2"/><rect x="534.8" y="173.3" width="5.4" height="20.3" fill="#ffffff" stroke="#d84a3a" stroke-width="1.2"/><rect x="534.8" y="454.3" width="5.4" height="55.7" fill="#d84a3a" opacity="0.75"/><line x1="546.9" y1="157.2" x2="546.9" y2="184.5" stroke="#d84a3a" stroke-width="1.2"/><rect x="544.2" y="167.6" width="5.4" height="16.7" fill="#ffffff" stroke="#d84a3a" stroke-width="1.2"/><rect x="544.2" y="455.7" width="5.4" height="54.3" fill="#d84a3a" opacity="0.75"/><line x1="556.3" y1="146.5" x2="556.3" y2="173.4" stroke="#d84a3a" stroke-width="1.2"/><rect x="553.5" y="155.5" width="5.4" height="17.9" fill="#ffffff" stroke="#d84a3a" stroke-width="1.2"/><rect x="553.5" y="460.1" width="5.4" height="49.9" fill="#d84a3a" opacity="0.75"/><line x1="565.6" y1="121.3" x2="565.6" y2="148.0" stroke="#d84a3a" stroke-width="1.2"/><rect x="562.9" y="132.7" width="5.4" height="9.2" fill="#ffffff" stroke="#d84a3a" stroke-width="1.2"/><rect x="562.9" y="457.5" width="5.4" height="52.5" fill="#d84a3a" opacity="0.75"/><line x1="575.0" y1="95.7" x2="575.0" y2="141.3" stroke="#d84a3a" stroke-width="1.2"/><rect x="572.3" y="117.2" width="5.4" height="10.6" fill="#ffffff" stroke="#d84a3a" stroke-width="1.2"/><rect x="572.3" y="453.2" width="5.4" height="56.8" fill="#d84a3a" opacity="0.75"/><line x1="584.4" y1="100.5" x2="584.4" y2="131.5" stroke="#d84a3a" stroke-width="1.2"/><rect x="581.7" y="115.9" width="5.4" height="14.1" fill="#ffffff" stroke="#d84a3a" stroke-width="1.2"/><rect x="581.7" y="457.5" width="5.4" height="52.5" fill="#d84a3a" opacity="0.75"/><line x1="593.8" y1="70.1" x2="593.8" y2="116.6" stroke="#d84a3a" stroke-width="1.2"/><rect x="591.0" y="70.1" width="5.4" height="34.7" fill="#ffffff" stroke="#d84a3a" stroke-width="1.2"/><rect x="591.0" y="454.6" width="5.4" height="55.4" fill="#d84a3a" opacity="0.75"/><line x1="603.1" y1="82.1" x2="603.1" y2="120.5" stroke="#168a50" stroke-width="1.2"/><rect x="600.4" y="88.2" width="5.4" height="32.3" fill="#168a50" stroke="#168a50" stroke-width="1.2"/><rect x="600.4" y="440.6" width="5.4" height="69.4" fill="#168a50" opacity="0.75"/><line x1="612.5" y1="113.3" x2="612.5" y2="156.7" stroke="#168a50" stroke-width="1.2"/><rect x="609.8" y="130.0" width="5.4" height="8.6" fill="#168a50" stroke="#168a50" stroke-width="1.2"/><rect x="609.8" y="454.0" width="5.4" height="56.0" fill="#168a50" opacity="0.75"/><line x1="621.9" y1="118.9" x2="621.9" y2="144.4" stroke="#d84a3a" stroke-width="1.2"/><rect x="619.2" y="125.0" width="5.4" height="6.4" fill="#ffffff" stroke="#d84a3a" stroke-width="1.2"/><rect x="619.2" y="465.8" width="5.4" height="44.2" fill="#d84a3a" opacity="0.75"/><line x1="631.3" y1="129.0" x2="631.3" y2="169.9" stroke="#168a50" stroke-width="1.2"/><rect x="628.5" y="129.3" width="5.4" height="34.6" fill="#168a50" stroke="#168a50" stroke-width="1.2"/><rect x="628.5" y="447.3" width="5.4" height="62.7" fill="#168a50" opacity="0.75"/><line x1="640.6" y1="172.1" x2="640.6" y2="199.5" stroke="#168a50" stroke-width="1.2"/><rect x="637.9" y="184.3" width="5.4" height="7.9" fill="#168a50" stroke="#168a50" stroke-width="1.2"/><rect x="637.9" y="461.0" width="5.4" height="49.0" fill="#168a50" opacity="0.75"/><line x1="650.0" y1="185.4" x2="650.0" y2="203.1" stroke="#168a50" stroke-width="1.2"/><rect x="647.3" y="197.9" width="5.4" height="4.4" fill="#168a50" stroke="#168a50" stroke-width="1.2"/><rect x="647.3" y="469.1" width="5.4" height="40.9" fill="#168a50" opacity="0.75"/><line x1="659.4" y1="189.5" x2="659.4" y2="229.2" stroke="#168a50" stroke-width="1.2"/><rect x="656.7" y="191.6" width="5.4" height="26.9" fill="#168a50" stroke="#168a50" stroke-width="1.2"/><rect x="656.7" y="462.9" width="5.4" height="47.1" fill="#168a50" opacity="0.75"/><line x1="668.8" y1="213.7" x2="668.8" y2="228.5" stroke="#168a50" stroke-width="1.2"/><rect x="666.1" y="219.2" width="5.4" height="5.0" fill="#168a50" stroke="#168a50" stroke-width="1.2"/><rect x="666.1" y="476.2" width="5.4" height="33.8" fill="#168a50" opacity="0.75"/><line x1="678.2" y1="217.2" x2="678.2" y2="243.0" stroke="#168a50" stroke-width="1.2"/><rect x="675.4" y="218.9" width="5.4" height="23.0" fill="#168a50" stroke="#168a50" stroke-width="1.2"/><rect x="675.4" y="471.3" width="5.4" height="38.7" fill="#168a50" opacity="0.75"/><line x1="687.5" y1="224.0" x2="687.5" y2="253.6" stroke="#d84a3a" stroke-width="1.2"/><rect x="684.8" y="225.1" width="5.4" height="9.5" fill="#ffffff" stroke="#d84a3a" stroke-width="1.2"/><rect x="684.8" y="450.5" width="5.4" height="59.5" fill="#d84a3a" opacity="0.75"/><line x1="696.9" y1="205.6" x2="696.9" y2="234.3" stroke="#168a50" stroke-width="1.2"/><rect x="694.2" y="223.6" width="5.4" height="10.6" fill="#168a50" stroke="#168a50" stroke-width="1.2"/><rect x="694.2" y="454.2" width="5.4" height="55.8" fill="#168a50" opacity="0.75"/><line x1="706.3" y1="235.9" x2="706.3" y2="268.1" stroke="#168a50" stroke-width="1.2"/><rect x="703.6" y="241.8" width="5.4" height="26.3" fill="#168a50" stroke="#168a50" stroke-width="1.2"/><rect x="703.6" y="465.3" width="5.4" height="44.7" fill="#168a50" opacity="0.75"/><line x1="715.7" y1="256.7" x2="715.7" y2="277.8" stroke="#d84a3a" stroke-width="1.2"/><rect x="712.9" y="256.8" width="5.4" height="13.7" fill="#ffffff" stroke="#d84a3a" stroke-width="1.2"/><rect x="712.9" y="468.4" width="5.4" height="41.6" fill="#d84a3a" opacity="0.75"/><line x1="725.0" y1="251.0" x2="725.0" y2="271.9" stroke="#168a50" stroke-width="1.2"/><rect x="722.3" y="254.7" width="5.4" height="16.0" fill="#168a50" stroke="#168a50" stroke-width="1.2"/><rect x="722.3" y="473.1" width="5.4" height="36.9" fill="#168a50" opacity="0.75"/><line x1="734.4" y1="273.5" x2="734.4" y2="298.8" stroke="#168a50" stroke-width="1.2"/><rect x="731.7" y="279.5" width="5.4" height="15.7" fill="#168a50" stroke="#168a50" stroke-width="1.2"/><rect x="731.7" y="468.7" width="5.4" height="41.3" fill="#168a50" opacity="0.75"/><line x1="743.8" y1="292.2" x2="743.8" y2="322.9" stroke="#168a50" stroke-width="1.2"/><rect x="741.1" y="297.1" width="5.4" height="25.7" fill="#168a50" stroke="#168a50" stroke-width="1.2"/><rect x="741.1" y="464.0" width="5.4" height="46.0" fill="#168a50" opacity="0.75"/><line x1="753.2" y1="311.3" x2="753.2" y2="342.6" stroke="#168a50" stroke-width="1.2"/><rect x="750.4" y="314.9" width="5.4" height="18.5" fill="#168a50" stroke="#168a50" stroke-width="1.2"/><rect x="750.4" y="458.3" width="5.4" height="51.7" fill="#168a50" opacity="0.75"/><line x1="762.5" y1="314.9" x2="762.5" y2="357.2" stroke="#d84a3a" stroke-width="1.2"/><rect x="759.8" y="315.6" width="5.4" height="13.1" fill="#ffffff" stroke="#d84a3a" stroke-width="1.2"/><rect x="759.8" y="438.2" width="5.4" height="71.8" fill="#d84a3a" opacity="0.75"/><line x1="771.9" y1="314.0" x2="771.9" y2="333.1" stroke="#168a50" stroke-width="1.2"/><rect x="769.2" y="320.3" width="5.4" height="11.1" fill="#168a50" stroke="#168a50" stroke-width="1.2"/><rect x="769.2" y="456.6" width="5.4" height="53.4" fill="#168a50" opacity="0.75"/><line x1="781.3" y1="320.3" x2="781.3" y2="332.7" stroke="#168a50" stroke-width="1.2"/><rect x="778.6" y="327.5" width="5.4" height="1.4" fill="#168a50" stroke="#168a50" stroke-width="1.2"/><rect x="778.6" y="473.1" width="5.4" height="36.9" fill="#168a50" opacity="0.75"/><line x1="790.7" y1="330.0" x2="790.7" y2="341.1" stroke="#168a50" stroke-width="1.2"/><rect x="787.9" y="331.0" width="5.4" height="8.6" fill="#168a50" stroke="#168a50" stroke-width="1.2"/><rect x="787.9" y="480.4" width="5.4" height="29.6" fill="#168a50" opacity="0.75"/><line x1="800.0" y1="329.5" x2="800.0" y2="343.0" stroke="#d84a3a" stroke-width="1.2"/><rect x="797.3" y="330.2" width="5.4" height="9.4" fill="#ffffff" stroke="#d84a3a" stroke-width="1.2"/><rect x="797.3" y="480.0" width="5.4" height="30.0" fill="#d84a3a" opacity="0.75"/><line x1="809.4" y1="332.7" x2="809.4" y2="352.5" stroke="#168a50" stroke-width="1.2"/><rect x="806.7" y="336.3" width="5.4" height="13.8" fill="#168a50" stroke="#168a50" stroke-width="1.2"/><rect x="806.7" y="475.4" width="5.4" height="34.6" fill="#168a50" opacity="0.75"/><line x1="818.8" y1="347.8" x2="818.8" y2="362.4" stroke="#168a50" stroke-width="1.2"/><rect x="816.1" y="349.7" width="5.4" height="5.0" fill="#168a50" stroke="#168a50" stroke-width="1.2"/><rect x="816.1" y="473.5" width="5.4" height="36.5" fill="#168a50" opacity="0.75"/><line x1="828.2" y1="352.6" x2="828.2" y2="371.9" stroke="#168a50" stroke-width="1.2"/><rect x="825.5" y="355.9" width="5.4" height="10.9" fill="#168a50" stroke="#168a50" stroke-width="1.2"/><rect x="825.5" y="471.5" width="5.4" height="38.5" fill="#168a50" opacity="0.75"/><line x1="837.5" y1="349.1" x2="837.5" y2="360.8" stroke="#168a50" stroke-width="1.2"/><rect x="834.8" y="352.8" width="5.4" height="8.0" fill="#168a50" stroke="#168a50" stroke-width="1.2"/><rect x="834.8" y="465.4" width="5.4" height="44.6" fill="#168a50" opacity="0.75"/><line x1="846.9" y1="358.4" x2="846.9" y2="364.5" stroke="#d84a3a" stroke-width="1.2"/><rect x="844.2" y="361.7" width="5.4" height="1.8" fill="#ffffff" stroke="#d84a3a" stroke-width="1.2"/><rect x="844.2" y="481.2" width="5.4" height="28.8" fill="#d84a3a" opacity="0.75"/><line x1="856.3" y1="348.7" x2="856.3" y2="358.8" stroke="#d84a3a" stroke-width="1.2"/><rect x="853.6" y="350.3" width="5.4" height="7.8" fill="#ffffff" stroke="#d84a3a" stroke-width="1.2"/><rect x="853.6" y="467.8" width="5.4" height="42.2" fill="#d84a3a" opacity="0.75"/><line x1="865.7" y1="329.9" x2="865.7" y2="357.2" stroke="#d84a3a" stroke-width="1.2"/><rect x="863.0" y="335.1" width="5.4" height="22.2" fill="#ffffff" stroke="#d84a3a" stroke-width="1.2"/><rect x="863.0" y="446.8" width="5.4" height="63.2" fill="#d84a3a" opacity="0.75"/><line x1="875.1" y1="327.0" x2="875.1" y2="340.6" stroke="#d84a3a" stroke-width="1.2"/><rect x="872.3" y="332.9" width="5.4" height="7.7" fill="#ffffff" stroke="#d84a3a" stroke-width="1.2"/><rect x="872.3" y="459.2" width="5.4" height="50.8" fill="#d84a3a" opacity="0.75"/><line x1="884.4" y1="319.7" x2="884.4" y2="334.8" stroke="#d84a3a" stroke-width="1.2"/><rect x="881.7" y="322.7" width="5.4" height="10.9" fill="#ffffff" stroke="#d84a3a" stroke-width="1.2"/><rect x="881.7" y="449.9" width="5.4" height="60.1" fill="#d84a3a" opacity="0.75"/><line x1="893.8" y1="317.8" x2="893.8" y2="333.4" stroke="#168a50" stroke-width="1.2"/><rect x="891.1" y="319.5" width="5.4" height="8.8" fill="#168a50" stroke="#168a50" stroke-width="1.2"/><rect x="891.1" y="464.3" width="5.4" height="45.7" fill="#168a50" opacity="0.75"/><line x1="903.2" y1="326.2" x2="903.2" y2="336.0" stroke="#d84a3a" stroke-width="1.2"/><rect x="900.5" y="332.5" width="5.4" height="1.4" fill="#ffffff" stroke="#d84a3a" stroke-width="1.2"/><rect x="900.5" y="476.4" width="5.4" height="33.6" fill="#d84a3a" opacity="0.75"/><line x1="912.6" y1="321.2" x2="912.6" y2="333.2" stroke="#d84a3a" stroke-width="1.2"/><rect x="909.8" y="323.6" width="5.4" height="8.6" fill="#ffffff" stroke="#d84a3a" stroke-width="1.2"/><rect x="909.8" y="470.6" width="5.4" height="39.4" fill="#d84a3a" opacity="0.75"/><line x1="921.9" y1="316.6" x2="921.9" y2="328.5" stroke="#168a50" stroke-width="1.2"/><rect x="919.2" y="320.2" width="5.4" height="8.2" fill="#168a50" stroke="#168a50" stroke-width="1.2"/><rect x="919.2" y="465.1" width="5.4" height="44.9" fill="#168a50" opacity="0.75"/><line x1="931.3" y1="307.3" x2="931.3" y2="326.8" stroke="#d84a3a" stroke-width="1.2"/><rect x="928.6" y="308.8" width="5.4" height="16.4" fill="#ffffff" stroke="#d84a3a" stroke-width="1.2"/><rect x="928.6" y="442.3" width="5.4" height="67.7" fill="#d84a3a" opacity="0.75"/><polyline points="68.7,368.1 78.1,367.9 87.4,366.7 96.8,365.6 106.2,364.9 115.6,364.4 124.9,364.5 134.3,365.0 143.7,365.0 153.1,364.4 162.5,363.8 171.8,363.0 181.2,361.1 190.6,358.4 200.0,355.1 209.3,352.8 218.7,350.4 228.1,347.2 237.5,344.9 246.8,343.4 256.2,341.9 265.6,339.9 275.0,337.0 284.3,333.1 293.7,328.2 303.1,323.5 312.5,318.4 321.8,312.7 331.2,308.0 340.6,302.0 350.0,295.9 359.4,289.5 368.7,285.5 378.1,281.3 387.5,278.3 396.9,275.9 406.2,273.8 415.6,272.0 425.0,269.4 434.4,267.5 443.7,263.9 453.1,260.1 462.5,257.3 471.9,255.4 481.2,253.3 490.6,249.4 500.0,247.0 509.4,245.1 518.8,242.3 528.1,239.5 537.5,236.0 546.9,232.5 556.3,227.1 565.6,221.2 575.0,214.3 584.4,206.3 593.8,195.6 603.1,187.9 612.5,181.8 621.9,173.9 631.3,169.3 640.6,166.8 650.0,165.3 659.4,164.6 668.8,165.4 678.2,169.0 687.5,170.1 696.9,171.3 706.3,174.0 715.7,177.2 725.0,182.0 734.4,188.4 743.8,196.8 753.2,206.8 762.5,216.7 771.9,227.5 781.3,240.4 790.7,251.4 800.0,260.9 809.4,272.2 818.8,281.7 828.2,290.5 837.5,298.4 846.9,305.5 856.3,311.9 865.7,316.5 875.1,321.9 884.4,326.3 893.8,329.3 903.2,333.1 912.6,335.8 921.9,337.4 931.3,336.7" fill="none" stroke="#7b3ff2" stroke-width="2.2"/><text x="72" y="64" font-size="12" fill="#7b3ff2">MA20</text><line x1="931.3" y1="46" x2="931.3" y2="510" stroke="#f0a000" stroke-width="1.6" stroke-dasharray="5 4"/><text x="926.3" y="62" text-anchor="end" font-size="12" fill="#b66d00">确认K</text><text x="68.7" y="544" text-anchor="middle" font-size="11" fill="#8a94a6">2026-04-01</text><text x="500.0" y="544" text-anchor="middle" font-size="11" fill="#8a94a6">2026-06-10</text><text x="931.3" y="544" text-anchor="middle" font-size="11" fill="#8a94a6">2026-08-14</text><line x1="64" y1="510" x2="936" y2="510" stroke="#dfe4ec"/></svg>