<svg xmlns="http://www.w3.org/2000/svg" width="960" height="560" viewBox="0 0 960 560"><rect width="100%" height="100%" fill="#ffffff"/><text x="64" y="26" font-size="18" font-weight="700" fill="#1c2738">陕西煤业 601225 · 买点一·MA20回踩确认</text><text x="936" y="26" text-anchor="end" font-size="13" fill="#6f7b8f">确认 2026-08-14</text><line x1="64" y1="46.0" x2="936" y2="46.0" stroke="#edf0f5"/><text x="56" y="50.0" text-anchor="end" font-size="11" fill="#8a94a6">26.88</text><line x1="64" y1="133.5" x2="936" y2="133.5" stroke="#edf0f5"/><text x="56" y="137.5" text-anchor="end" font-size="11" fill="#8a94a6">25.04</text><line x1="64" y1="221.0" x2="936" y2="221.0" stroke="#edf0f5"/><text x="56" y="225.0" text-anchor="end" font-size="11" fill="#8a94a6">23.20</text><line x1="64" y1="308.5" x2="936" y2="308.5" stroke="#edf0f5"/><text x="56" y="312.5" text-anchor="end" font-size="11" fill="#8a94a6">21.35</text><line x1="64" y1="396.0" x2="936" y2="396.0" stroke="#edf0f5"/><text x="56" y="400.0" text-anchor="end" font-size="11" fill="#8a94a6">19.51</text><line x1="64" y1="146.1" x2="936" y2="146.1" stroke="#2f6fed" stroke-width="2" stroke-dasharray="8 5"/><text x="932" y="140.1" text-anchor="end" font-size="12" fill="#2f6fed">MA20 24.77</text><line x1="74.1" y1="159.4" x2="74.1" y2="213.6" stroke="#168a50" stroke-width="1.2"/><rect x="70.6" y="171.8" width="7.0" height="35.2" fill="#168a50" stroke="#168a50" stroke-width="1.2"/><rect x="70.6" y="439.4" width="7.0" height="70.6" fill="#168a50" opacity="0.75"/><line x1="94.4" y1="203.1" x2="94.4" y2="248.3" stroke="#168a50" stroke-width="1.2"/><rect x="90.9" y="206.0" width="7.0" height="39.9" fill="#168a50" stroke="#168a50" stroke-width="1.2"/><rect x="90.9" y="464.2" width="7.0" height="45.8" fill="#168a50" opacity="0.75"/><line x1="114.7" y1="238.8" x2="114.7" y2="275.4" stroke="#168a50" stroke-width="1.2"/><rect x="111.2" y="259.2" width="7.0" height="15.7" fill="#168a50" stroke="#168a50" stroke-width="1.2"/><rect x="111.2" y="463.4" width="7.0" height="46.6" fill="#168a50" opacity="0.75"/><line x1="135.0" y1="249.7" x2="135.0" y2="292.5" stroke="#d84a3a" stroke-width="1.2"/><rect x="131.5" y="259.2" width="7.0" height="15.7" fill="#ffffff" stroke="#d84a3a" stroke-width="1.2"/><rect x="131.5" y="448.7" width="7.0" height="61.3" fill="#d84a3a" opacity="0.75"/><line x1="155.3" y1="240.2" x2="155.3" y2="296.7" stroke="#168a50" stroke-width="1.2"/><rect x="151.8" y="264.0" width="7.0" height="29.5" fill="#168a50" stroke="#168a50" stroke-width="1.2"/><rect x="151.8" y="451.4" width="7.0" height="58.6" fill="#168a50" opacity="0.75"/><line x1="175.5" y1="285.3" x2="175.5" y2="321.9" stroke="#168a50" stroke-width="1.2"/><rect x="172.0" y="288.7" width="7.0" height="30.4" fill="#168a50" stroke="#168a50" stroke-width="1.2"/><rect x="172.0" y="458.8" width="7.0" height="51.2" fill="#168a50" opacity="0.75"/><line x1="195.8" y1="316.2" x2="195.8" y2="349.5" stroke="#168a50" stroke-width="1.2"/><rect x="192.3" y="339.0" width="7.0" height="1.4" fill="#168a50" stroke="#168a50" stroke-width="1.2"/><rect x="192.3" y="439.2" width="7.0" height="70.8" fill="#168a50" opacity="0.75"/><line x1="216.1" y1="314.4" x2="216.1" y2="347.6" stroke="#168a50" stroke-width="1.2"/><rect x="212.6" y="330.0" width="7.0" height="9.5" fill="#168a50" stroke="#168a50" stroke-width="1.2"/><rect x="212.6" y="457.8" width="7.0" height="52.2" fill="#168a50" opacity="0.75"/><line x1="236.4" y1="308.2" x2="236.4" y2="346.7" stroke="#d84a3a" stroke-width="1.2"/><rect x="232.9" y="325.3" width="7.0" height="7.1" fill="#ffffff" stroke="#d84a3a" stroke-width="1.2"/><rect x="232.9" y="452.1" width="7.0" height="57.9" fill="#d84a3a" opacity="0.75"/><line x1="256.7" y1="324.8" x2="256.7" y2="370.4" stroke="#168a50" stroke-width="1.2"/><rect x="253.2" y="329.1" width="7.0" height="27.1" fill="#168a50" stroke="#168a50" stroke-width="1.2"/><rect x="253.2" y="448.7" width="7.0" height="61.3" fill="#168a50" opacity="0.75"/><line x1="276.9" y1="314.8" x2="276.9" y2="371.9" stroke="#d84a3a" stroke-width="1.2"/><rect x="273.4" y="326.7" width="7.0" height="29.5" fill="#ffffff" stroke="#d84a3a" stroke-width="1.2"/><rect x="273.4" y="445.4" width="7.0" height="64.6" fill="#d84a3a" opacity="0.75"/><line x1="297.2" y1="288.2" x2="297.2" y2="324.3" stroke="#d84a3a" stroke-width="1.2"/><rect x="293.7" y="301.5" width="7.0" height="19.0" fill="#ffffff" stroke="#d84a3a" stroke-width="1.2"/><rect x="293.7" y="440.4" width="7.0" height="69.6" fill="#d84a3a" opacity="0.75"/><line x1="317.5" y1="268.8" x2="317.5" y2="308.2" stroke="#168a50" stroke-width="1.2"/><rect x="314.0" y="292.5" width="7.0" height="7.1" fill="#168a50" stroke="#168a50" stroke-width="1.2"/><rect x="314.0" y="452.4" width="7.0" height="57.6" fill="#168a50" opacity="0.75"/><line x1="337.8" y1="216.0" x2="337.8" y2="308.2" stroke="#d84a3a" stroke-width="1.2"/><rect x="334.3" y="225.0" width="7.0" height="75.1" fill="#ffffff" stroke="#d84a3a" stroke-width="1.2"/><rect x="334.3" y="429.3" width="7.0" height="80.7" fill="#d84a3a" opacity="0.75"/><line x1="358.0" y1="226.5" x2="358.0" y2="257.3" stroke="#168a50" stroke-width="1.2"/><rect x="354.5" y="235.0" width="7.0" height="1.4" fill="#168a50" stroke="#168a50" stroke-width="1.2"/><rect x="354.5" y="456.2" width="7.0" height="53.8" fill="#168a50" opacity="0.75"/><line x1="378.3" y1="182.7" x2="378.3" y2="249.3" stroke="#d84a3a" stroke-width="1.2"/><rect x="374.8" y="204.1" width="7.0" height="27.1" fill="#ffffff" stroke="#d84a3a" stroke-width="1.2"/><rect x="374.8" y="450.9" width="7.0" height="59.1" fill="#d84a3a" opacity="0.75"/><line x1="398.6" y1="199.4" x2="398.6" y2="240.7" stroke="#168a50" stroke-width="1.2"/><rect x="395.1" y="227.4" width="7.0" height="11.9" fill="#168a50" stroke="#168a50" stroke-width="1.2"/><rect x="395.1" y="463.2" width="7.0" height="46.8" fill="#168a50" opacity="0.75"/><line x1="418.9" y1="219.8" x2="418.9" y2="266.4" stroke="#d84a3a" stroke-width="1.2"/><rect x="415.4" y="234.1" width="7.0" height="16.2" fill="#ffffff" stroke="#d84a3a" stroke-width="1.2"/><rect x="415.4" y="469.3" width="7.0" height="40.7" fill="#d84a3a" opacity="0.75"/><line x1="439.2" y1="177.5" x2="439.2" y2="244.5" stroke="#d84a3a" stroke-width="1.2"/><rect x="435.7" y="185.1" width="7.0" height="43.7" fill="#ffffff" stroke="#d84a3a" stroke-width="1.2"/><rect x="435.7" y="441.7" width="7.0" height="68.3" fill="#d84a3a" opacity="0.75"/><line x1="459.4" y1="139.0" x2="459.4" y2="195.6" stroke="#d84a3a" stroke-width="1.2"/><rect x="455.9" y="156.6" width="7.0" height="39.0" fill="#ffffff" stroke="#d84a3a" stroke-width="1.2"/><rect x="455.9" y="440.3" width="7.0" height="69.7" fill="#d84a3a" opacity="0.75"/><line x1="479.7" y1="126.7" x2="479.7" y2="177.5" stroke="#d84a3a" stroke-width="1.2"/><rect x="476.2" y="153.8" width="7.0" height="11.9" fill="#ffffff" stroke="#d84a3a" stroke-width="1.2"/><rect x="476.2" y="461.5" width="7.0" height="48.5" fill="#d84a3a" opacity="0.75"/><line x1="500.0" y1="146.2" x2="500.0" y2="196.1" stroke="#168a50" stroke-width="1.2"/><rect x="496.5" y="153.8" width="7.0" height="35.2" fill="#168a50" stroke="#168a50" stroke-width="1.2"/><rect x="496.5" y="467.3" width="7.0" height="42.7" fill="#168a50" opacity="0.75"/><line x1="520.3" y1="156.1" x2="520.3" y2="194.6" stroke="#d84a3a" stroke-width="1.2"/><rect x="516.8" y="168.5" width="7.0" height="18.5" fill="#ffffff" stroke="#d84a3a" stroke-width="1.2"/><rect x="516.8" y="454.7" width="7.0" height="55.3" fill="#d84a3a" opacity="0.75"/><line x1="540.6" y1="127.2" x2="540.6" y2="177.5" stroke="#d84a3a" stroke-width="1.2"/><rect x="537.1" y="135.2" width="7.0" height="33.3" fill="#ffffff" stroke="#d84a3a" stroke-width="1.2"/><rect x="537.1" y="420.0" width="7.0" height="90.0" fill="#d84a3a" opacity="0.75"/><line x1="560.8" y1="132.9" x2="560.8" y2="192.3" stroke="#168a50" stroke-width="1.2"/><rect x="557.3" y="149.5" width="7.0" height="34.2" fill="#168a50" stroke="#168a50" stroke-width="1.2"/><rect x="557.3" y="421.9" width="7.0" height="88.1" fill="#168a50" opacity="0.75"/><line x1="581.1" y1="140.5" x2="581.1" y2="192.3" stroke="#d84a3a" stroke-width="1.2"/><rect x="577.6" y="140.5" width="7.0" height="48.9" fill="#ffffff" stroke="#d84a3a" stroke-width="1.2"/><rect x="577.6" y="450.8" width="7.0" height="59.2" fill="#d84a3a" opacity="0.75"/><line x1="601.4" y1="112.9" x2="601.4" y2="158.0" stroke="#d84a3a" stroke-width="1.2"/><rect x="597.9" y="123.4" width="7.0" height="28.5" fill="#ffffff" stroke="#d84a3a" stroke-width="1.2"/><rect x="597.9" y="454.3" width="7.0" height="55.7" fill="#d84a3a" opacity="0.75"/><line x1="621.7" y1="106.7" x2="621.7" y2="153.8" stroke="#168a50" stroke-width="1.2"/><rect x="618.2" y="114.3" width="7.0" height="35.2" fill="#168a50" stroke="#168a50" stroke-width="1.2"/><rect x="618.2" y="470.5" width="7.0" height="39.5" fill="#168a50" opacity="0.75"/><line x1="642.0" y1="145.2" x2="642.0" y2="182.3" stroke="#d84a3a" stroke-width="1.2"/><rect x="638.5" y="156.1" width="7.0" height="7.6" fill="#ffffff" stroke="#d84a3a" stroke-width="1.2"/><rect x="638.5" y="454.6" width="7.0" height="55.4" fill="#d84a3a" opacity="0.75"/><line x1="662.2" y1="155.7" x2="662.2" y2="185.6" stroke="#168a50" stroke-width="1.2"/><rect x="658.7" y="155.7" width="7.0" height="8.1" fill="#168a50" stroke="#168a50" stroke-width="1.2"/><rect x="658.7" y="472.3" width="7.0" height="37.7" fill="#168a50" opacity="0.75"/><line x1="682.5" y1="135.7" x2="682.5" y2="166.6" stroke="#d84a3a" stroke-width="1.2"/><rect x="679.0" y="152.3" width="7.0" height="12.4" fill="#ffffff" stroke="#d84a3a" stroke-width="1.2"/><rect x="679.0" y="465.4" width="7.0" height="44.6" fill="#d84a3a" opacity="0.75"/><line x1="702.8" y1="135.2" x2="702.8" y2="154.7" stroke="#d84a3a" stroke-width="1.2"/><rect x="699.3" y="147.6" width="7.0" height="1.9" fill="#ffffff" stroke="#d84a3a" stroke-width="1.2"/><rect x="699.3" y="481.5" width="7.0" height="28.5" fill="#d84a3a" opacity="0.75"/><line x1="723.1" y1="144.7" x2="723.1" y2="193.7" stroke="#d84a3a" stroke-width="1.2"/><rect x="719.6" y="144.7" width="7.0" height="38.0" fill="#ffffff" stroke="#d84a3a" stroke-width="1.2"/><rect x="719.6" y="458.7" width="7.0" height="51.3" fill="#d84a3a" opacity="0.75"/><line x1="743.3" y1="141.9" x2="743.3" y2="177.5" stroke="#168a50" stroke-width="1.2"/><rect x="739.8" y="154.2" width="7.0" height="20.0" fill="#168a50" stroke="#168a50" stroke-width="1.2"/><rect x="739.8" y="471.3" width="7.0" height="38.7" fill="#168a50" opacity="0.75"/><line x1="763.6" y1="170.4" x2="763.6" y2="203.2" stroke="#168a50" stroke-width="1.2"/><rect x="760.1" y="176.6" width="7.0" height="10.0" fill="#168a50" stroke="#168a50" stroke-width="1.2"/><rect x="760.1" y="458.1" width="7.0" height="51.9" fill="#168a50" opacity="0.75"/><line x1="783.9" y1="180.8" x2="783.9" y2="212.7" stroke="#168a50" stroke-width="1.2"/><rect x="780.4" y="187.5" width="7.0" height="1.4" fill="#168a50" stroke="#168a50" stroke-width="1.2"/><rect x="780.4" y="465.0" width="7.0" height="45.0" fill="#168a50" opacity="0.75"/><line x1="804.2" y1="130.5" x2="804.2" y2="187.5" stroke="#d84a3a" stroke-width="1.2"/><rect x="800.7" y="140.9" width="7.0" height="46.6" fill="#ffffff" stroke="#d84a3a" stroke-width="1.2"/><rect x="800.7" y="450.2" width="7.0" height="59.8" fill="#d84a3a" opacity="0.75"/><line x1="824.5" y1="119.1" x2="824.5" y2="159.0" stroke="#d84a3a" stroke-width="1.2"/><rect x="821.0" y="133.3" width="7.0" height="10.0" fill="#ffffff" stroke="#d84a3a" stroke-width="1.2"/><rect x="821.0" y="457.5" width="7.0" height="52.5" fill="#d84a3a" opacity="0.75"/><line x1="844.7" y1="78.7" x2="844.7" y2="138.1" stroke="#d84a3a" stroke-width="1.2"/><rect x="841.2" y="85.8" width="7.0" height="51.8" fill="#ffffff" stroke="#d84a3a" stroke-width="1.2"/><rect x="841.2" y="466.5" width="7.0" height="43.5" fill="#d84a3a" opacity="0.75"/><line x1="865.0" y1="70.1" x2="865.0" y2="107.2" stroke="#168a50" stroke-width="1.2"/><rect x="861.5" y="75.8" width="7.0" height="15.2" fill="#168a50" stroke="#168a50" stroke-width="1.2"/><rect x="861.5" y="461.1" width="7.0" height="48.9" fill="#168a50" opacity="0.75"/><line x1="885.3" y1="78.7" x2="885.3" y2="130.0" stroke="#168a50" stroke-width="1.2"/><rect x="881.8" y="98.6" width="7.0" height="27.1" fill="#168a50" stroke="#168a50" stroke-width="1.2"/><rect x="881.8" y="472.8" width="7.0" height="37.2" fill="#168a50" opacity="0.75"/><line x1="905.6" y1="118.1" x2="905.6" y2="150.4" stroke="#d84a3a" stroke-width="1.2"/><rect x="902.1" y="131.4" width="7.0" height="2.9" fill="#ffffff" stroke="#d84a3a" stroke-width="1.2"/><rect x="902.1" y="477.5" width="7.0" height="32.5" fill="#d84a3a" opacity="0.75"/><line x1="925.9" y1="106.2" x2="925.9" y2="149.5" stroke="#d84a3a" stroke-width="1.2"/><rect x="922.4" y="117.7" width="7.0" height="15.7" fill="#ffffff" stroke="#d84a3a" stroke-width="1.2"/><rect x="922.4" y="470.9" width="7.0" height="39.1" fill="#d84a3a" opacity="0.75"/><polyline points="74.1,146.0 94.4,147.4 114.7,148.5 135.0,148.5 155.3,151.7 175.5,156.2 195.8,163.4 216.1,170.7 236.4,179.8 256.7,192.9 276.9,203.5 297.2,214.7 317.5,226.5 337.8,233.9 358.0,243.5 378.3,249.5 398.6,256.4 418.9,263.8 439.2,268.9 459.4,268.4 479.7,265.8 500.0,262.9 520.3,257.6 540.6,251.4 560.8,245.9 581.1,237.0 601.4,226.2 621.7,216.7 642.0,208.2 662.2,198.6 682.5,189.9 702.8,182.2 723.1,174.4 743.3,171.9 763.6,169.4 783.9,168.6 804.2,163.7 824.5,158.6 844.7,153.7 865.0,150.4 885.3,149.0 905.6,146.1 925.9,143.6" fill="none" stroke="#7b3ff2" stroke-width="2.2"/><text x="72" y="64" font-size="12" fill="#7b3ff2">MA20</text><line x1="925.9" y1="46" x2="925.9" y2="510" stroke="#f0a000" stroke-width="1.6" stroke-dasharray="5 4"/><text x="920.9" y="62" text-anchor="end" font-size="12" fill="#b66d00">确认K</text><text x="74.1" y="544" text-anchor="middle" font-size="11" fill="#8a94a6">2026-06-16</text><text x="500.0" y="544" text-anchor="middle" font-size="11" fill="#8a94a6">2026-07-16</text><text x="925.9" y="544" text-anchor="middle" font-size="11" fill="#8a94a6">2026-08-14</text><line x1="64" y1="510" x2="936" y2="510" stroke="#dfe4ec"/></svg>