<svg xmlns="http://www.w3.org/2000/svg" width="960" height="560" viewBox="0 0 960 560"><rect width="100%" height="100%" fill="#ffffff"/><text x="64" y="26" font-size="18" font-weight="700" fill="#1c2738">安图生物 603658 · 买点二·前高支撑确认</text><text x="936" y="26" text-anchor="end" font-size="13" fill="#6f7b8f">确认 2026-08-14</text><line x1="64" y1="46.0" x2="936" y2="46.0" stroke="#edf0f5"/><text x="56" y="50.0" text-anchor="end" font-size="11" fill="#8a94a6">35.22</text><line x1="64" y1="133.5" x2="936" y2="133.5" stroke="#edf0f5"/><text x="56" y="137.5" text-anchor="end" font-size="11" fill="#8a94a6">33.33</text><line x1="64" y1="221.0" x2="936" y2="221.0" stroke="#edf0f5"/><text x="56" y="225.0" text-anchor="end" font-size="11" fill="#8a94a6">31.44</text><line x1="64" y1="308.5" x2="936" y2="308.5" stroke="#edf0f5"/><text x="56" y="312.5" text-anchor="end" font-size="11" fill="#8a94a6">29.55</text><line x1="64" y1="396.0" x2="936" y2="396.0" stroke="#edf0f5"/><text x="56" y="400.0" text-anchor="end" font-size="11" fill="#8a94a6">27.66</text><line x1="64" y1="226.1" x2="936" y2="226.1" stroke="#2f6fed" stroke-width="2" stroke-dasharray="8 5"/><text x="932" y="220.1" text-anchor="end" font-size="12" fill="#2f6fed">邻近前高 31.33</text><line x1="76.1" y1="300.1" x2="76.1" y2="346.9" stroke="#168a50" stroke-width="1.2"/><rect x="72.6" y="310.8" width="7.0" height="36.1" fill="#168a50" stroke="#168a50" stroke-width="1.2"/><rect x="72.6" y="491.7" width="7.0" height="18.3" fill="#168a50" opacity="0.75"/><line x1="100.3" y1="285.8" x2="100.3" y2="371.9" stroke="#d84a3a" stroke-width="1.2"/><rect x="96.8" y="292.3" width="7.0" height="54.6" fill="#ffffff" stroke="#d84a3a" stroke-width="1.2"/><rect x="96.8" y="482.1" width="7.0" height="27.9" fill="#d84a3a" opacity="0.75"/><line x1="124.6" y1="293.7" x2="124.6" y2="338.5" stroke="#168a50" stroke-width="1.2"/><rect x="121.1" y="295.0" width="7.0" height="37.9" fill="#168a50" stroke="#168a50" stroke-width="1.2"/><rect x="121.1" y="489.3" width="7.0" height="20.7" fill="#168a50" opacity="0.75"/><line x1="148.8" y1="281.2" x2="148.8" y2="343.2" stroke="#d84a3a" stroke-width="1.2"/><rect x="145.3" y="292.3" width="7.0" height="24.5" fill="#ffffff" stroke="#d84a3a" stroke-width="1.2"/><rect x="145.3" y="483.5" width="7.0" height="26.5" fill="#d84a3a" opacity="0.75"/><line x1="173.0" y1="264.5" x2="173.0" y2="296.9" stroke="#168a50" stroke-width="1.2"/><rect x="169.5" y="278.8" width="7.0" height="1.9" fill="#168a50" stroke="#168a50" stroke-width="1.2"/><rect x="169.5" y="486.7" width="7.0" height="23.3" fill="#168a50" opacity="0.75"/><line x1="197.2" y1="235.3" x2="197.2" y2="287.6" stroke="#d84a3a" stroke-width="1.2"/><rect x="193.7" y="240.4" width="7.0" height="47.2" fill="#ffffff" stroke="#d84a3a" stroke-width="1.2"/><rect x="193.7" y="471.1" width="7.0" height="38.9" fill="#d84a3a" opacity="0.75"/><line x1="221.4" y1="224.7" x2="221.4" y2="261.3" stroke="#d84a3a" stroke-width="1.2"/><rect x="217.9" y="235.3" width="7.0" height="4.6" fill="#ffffff" stroke="#d84a3a" stroke-width="1.2"/><rect x="217.9" y="475.2" width="7.0" height="34.8" fill="#d84a3a" opacity="0.75"/><line x1="245.7" y1="226.1" x2="245.7" y2="274.2" stroke="#168a50" stroke-width="1.2"/><rect x="242.2" y="226.1" width="7.0" height="38.4" fill="#168a50" stroke="#168a50" stroke-width="1.2"/><rect x="242.2" y="489.5" width="7.0" height="20.5" fill="#168a50" opacity="0.75"/><line x1="269.9" y1="230.3" x2="269.9" y2="280.7" stroke="#d84a3a" stroke-width="1.2"/><rect x="266.4" y="247.4" width="7.0" height="17.1" fill="#ffffff" stroke="#d84a3a" stroke-width="1.2"/><rect x="266.4" y="487.0" width="7.0" height="23.0" fill="#d84a3a" opacity="0.75"/><line x1="294.1" y1="241.8" x2="294.1" y2="275.6" stroke="#168a50" stroke-width="1.2"/><rect x="290.6" y="250.6" width="7.0" height="9.7" fill="#168a50" stroke="#168a50" stroke-width="1.2"/><rect x="290.6" y="491.4" width="7.0" height="18.6" fill="#168a50" opacity="0.75"/><line x1="318.3" y1="233.0" x2="318.3" y2="285.8" stroke="#d84a3a" stroke-width="1.2"/><rect x="314.8" y="251.5" width="7.0" height="7.9" fill="#ffffff" stroke="#d84a3a" stroke-width="1.2"/><rect x="314.8" y="484.9" width="7.0" height="25.1" fill="#d84a3a" opacity="0.75"/><line x1="342.6" y1="225.6" x2="342.6" y2="257.6" stroke="#d84a3a" stroke-width="1.2"/><rect x="339.1" y="232.1" width="7.0" height="14.8" fill="#ffffff" stroke="#d84a3a" stroke-width="1.2"/><rect x="339.1" y="482.1" width="7.0" height="27.9" fill="#d84a3a" opacity="0.75"/><line x1="366.8" y1="164.5" x2="366.8" y2="240.4" stroke="#d84a3a" stroke-width="1.2"/><rect x="363.3" y="201.1" width="7.0" height="21.8" fill="#ffffff" stroke="#d84a3a" stroke-width="1.2"/><rect x="363.3" y="464.0" width="7.0" height="46.0" fill="#d84a3a" opacity="0.75"/><line x1="391.0" y1="162.2" x2="391.0" y2="212.7" stroke="#d84a3a" stroke-width="1.2"/><rect x="387.5" y="173.8" width="7.0" height="27.3" fill="#ffffff" stroke="#d84a3a" stroke-width="1.2"/><rect x="387.5" y="470.8" width="7.0" height="39.2" fill="#d84a3a" opacity="0.75"/><line x1="415.2" y1="129.4" x2="415.2" y2="188.6" stroke="#d84a3a" stroke-width="1.2"/><rect x="411.7" y="143.7" width="7.0" height="30.1" fill="#ffffff" stroke="#d84a3a" stroke-width="1.2"/><rect x="411.7" y="462.7" width="7.0" height="47.3" fill="#d84a3a" opacity="0.75"/><line x1="439.4" y1="128.4" x2="439.4" y2="185.8" stroke="#168a50" stroke-width="1.2"/><rect x="435.9" y="148.8" width="7.0" height="35.6" fill="#168a50" stroke="#168a50" stroke-width="1.2"/><rect x="435.9" y="457.6" width="7.0" height="52.4" fill="#168a50" opacity="0.75"/><line x1="463.7" y1="153.9" x2="463.7" y2="190.0" stroke="#d84a3a" stroke-width="1.2"/><rect x="460.2" y="166.4" width="7.0" height="17.1" fill="#ffffff" stroke="#d84a3a" stroke-width="1.2"/><rect x="460.2" y="474.1" width="7.0" height="35.9" fill="#d84a3a" opacity="0.75"/><line x1="487.9" y1="127.5" x2="487.9" y2="171.9" stroke="#d84a3a" stroke-width="1.2"/><rect x="484.4" y="163.6" width="7.0" height="1.4" fill="#ffffff" stroke="#d84a3a" stroke-width="1.2"/><rect x="484.4" y="460.4" width="7.0" height="49.6" fill="#d84a3a" opacity="0.75"/><line x1="512.1" y1="149.7" x2="512.1" y2="188.6" stroke="#d84a3a" stroke-width="1.2"/><rect x="508.6" y="161.3" width="7.0" height="9.3" fill="#ffffff" stroke="#d84a3a" stroke-width="1.2"/><rect x="508.6" y="477.8" width="7.0" height="32.2" fill="#d84a3a" opacity="0.75"/><line x1="536.3" y1="155.7" x2="536.3" y2="190.0" stroke="#168a50" stroke-width="1.2"/><rect x="532.8" y="165.9" width="7.0" height="20.8" fill="#168a50" stroke="#168a50" stroke-width="1.2"/><rect x="532.8" y="489.2" width="7.0" height="20.8" fill="#168a50" opacity="0.75"/><line x1="560.6" y1="178.9" x2="560.6" y2="222.4" stroke="#168a50" stroke-width="1.2"/><rect x="557.1" y="186.8" width="7.0" height="33.3" fill="#168a50" stroke="#168a50" stroke-width="1.2"/><rect x="557.1" y="490.8" width="7.0" height="19.2" fill="#168a50" opacity="0.75"/><line x1="584.8" y1="190.5" x2="584.8" y2="227.9" stroke="#d84a3a" stroke-width="1.2"/><rect x="581.3" y="199.2" width="7.0" height="23.1" fill="#ffffff" stroke="#d84a3a" stroke-width="1.2"/><rect x="581.3" y="488.2" width="7.0" height="21.8" fill="#d84a3a" opacity="0.75"/><line x1="609.0" y1="192.8" x2="609.0" y2="222.4" stroke="#168a50" stroke-width="1.2"/><rect x="605.5" y="196.0" width="7.0" height="2.8" fill="#168a50" stroke="#168a50" stroke-width="1.2"/><rect x="605.5" y="486.6" width="7.0" height="23.4" fill="#168a50" opacity="0.75"/><line x1="633.2" y1="140.5" x2="633.2" y2="203.0" stroke="#d84a3a" stroke-width="1.2"/><rect x="629.7" y="161.3" width="7.0" height="37.5" fill="#ffffff" stroke="#d84a3a" stroke-width="1.2"/><rect x="629.7" y="475.8" width="7.0" height="34.2" fill="#d84a3a" opacity="0.75"/><line x1="657.4" y1="124.7" x2="657.4" y2="165.9" stroke="#d84a3a" stroke-width="1.2"/><rect x="653.9" y="128.0" width="7.0" height="33.3" fill="#ffffff" stroke="#d84a3a" stroke-width="1.2"/><rect x="653.9" y="474.0" width="7.0" height="36.0" fill="#d84a3a" opacity="0.75"/><line x1="681.7" y1="111.8" x2="681.7" y2="143.7" stroke="#168a50" stroke-width="1.2"/><rect x="678.2" y="130.3" width="7.0" height="13.4" fill="#168a50" stroke="#168a50" stroke-width="1.2"/><rect x="678.2" y="472.2" width="7.0" height="37.8" fill="#168a50" opacity="0.75"/><line x1="705.9" y1="70.1" x2="705.9" y2="133.5" stroke="#d84a3a" stroke-width="1.2"/><rect x="702.4" y="94.7" width="7.0" height="38.9" fill="#ffffff" stroke="#d84a3a" stroke-width="1.2"/><rect x="702.4" y="458.1" width="7.0" height="51.9" fill="#d84a3a" opacity="0.75"/><line x1="730.1" y1="88.6" x2="730.1" y2="122.9" stroke="#168a50" stroke-width="1.2"/><rect x="726.6" y="91.0" width="7.0" height="31.9" fill="#168a50" stroke="#168a50" stroke-width="1.2"/><rect x="726.6" y="481.5" width="7.0" height="28.5" fill="#168a50" opacity="0.75"/><line x1="754.3" y1="125.2" x2="754.3" y2="176.1" stroke="#168a50" stroke-width="1.2"/><rect x="750.8" y="125.2" width="7.0" height="39.3" fill="#168a50" stroke="#168a50" stroke-width="1.2"/><rect x="750.8" y="467.5" width="7.0" height="42.5" fill="#168a50" opacity="0.75"/><line x1="778.6" y1="162.7" x2="778.6" y2="199.7" stroke="#168a50" stroke-width="1.2"/><rect x="775.1" y="162.7" width="7.0" height="31.9" fill="#168a50" stroke="#168a50" stroke-width="1.2"/><rect x="775.1" y="479.0" width="7.0" height="31.0" fill="#168a50" opacity="0.75"/><line x1="802.8" y1="172.4" x2="802.8" y2="213.1" stroke="#d84a3a" stroke-width="1.2"/><rect x="799.3" y="175.2" width="7.0" height="20.4" fill="#ffffff" stroke="#d84a3a" stroke-width="1.2"/><rect x="799.3" y="473.5" width="7.0" height="36.5" fill="#d84a3a" opacity="0.75"/><line x1="827.0" y1="131.2" x2="827.0" y2="185.4" stroke="#d84a3a" stroke-width="1.2"/><rect x="823.5" y="155.7" width="7.0" height="18.5" fill="#ffffff" stroke="#d84a3a" stroke-width="1.2"/><rect x="823.5" y="474.0" width="7.0" height="36.0" fill="#d84a3a" opacity="0.75"/><line x1="851.2" y1="135.4" x2="851.2" y2="167.3" stroke="#168a50" stroke-width="1.2"/><rect x="847.7" y="162.7" width="7.0" height="3.7" fill="#168a50" stroke="#168a50" stroke-width="1.2"/><rect x="847.7" y="484.5" width="7.0" height="25.5" fill="#168a50" opacity="0.75"/><line x1="875.4" y1="153.9" x2="875.4" y2="184.0" stroke="#168a50" stroke-width="1.2"/><rect x="871.9" y="169.6" width="7.0" height="10.6" fill="#168a50" stroke="#168a50" stroke-width="1.2"/><rect x="871.9" y="491.2" width="7.0" height="18.8" fill="#168a50" opacity="0.75"/><line x1="899.7" y1="156.7" x2="899.7" y2="200.2" stroke="#d84a3a" stroke-width="1.2"/><rect x="896.2" y="176.6" width="7.0" height="6.5" fill="#ffffff" stroke="#d84a3a" stroke-width="1.2"/><rect x="896.2" y="481.7" width="7.0" height="28.3" fill="#d84a3a" opacity="0.75"/><line x1="923.9" y1="74.3" x2="923.9" y2="186.3" stroke="#d84a3a" stroke-width="1.2"/><rect x="920.4" y="117.8" width="7.0" height="54.1" fill="#ffffff" stroke="#d84a3a" stroke-width="1.2"/><rect x="920.4" y="420.0" width="7.0" height="90.0" fill="#d84a3a" opacity="0.75"/><polyline points="76.1,251.0 100.3,256.4 124.6,263.6 148.8,268.0 173.0,270.0 197.2,268.9 221.4,268.9 245.7,268.2 269.9,265.5 294.1,265.0 318.3,265.7 342.6,265.8 366.8,266.3 391.0,264.1 415.2,259.3 439.4,255.2 463.7,249.6 487.9,245.5 512.1,238.9 536.3,232.9 560.6,226.6 584.8,221.9 609.0,215.2 633.2,208.6 657.4,201.0 681.7,196.2 705.9,189.1 730.1,182.1 754.3,177.9 778.6,174.6 802.8,170.8 827.0,167.0 851.2,165.3 875.4,165.6 899.7,167.2 923.9,163.9" fill="none" stroke="#7b3ff2" stroke-width="2.2"/><text x="72" y="64" font-size="12" fill="#7b3ff2">MA20</text><line x1="923.9" y1="46" x2="923.9" y2="510" stroke="#f0a000" stroke-width="1.6" stroke-dasharray="5 4"/><text x="918.9" y="62" text-anchor="end" font-size="12" fill="#b66d00">确认K</text><text x="76.1" y="544" text-anchor="middle" font-size="11" fill="#8a94a6">2026-06-26</text><text x="512.1" y="544" text-anchor="middle" font-size="11" fill="#8a94a6">2026-07-22</text><text x="923.9" y="544" text-anchor="middle" font-size="11" fill="#8a94a6">2026-08-14</text><line x1="64" y1="510" x2="936" y2="510" stroke="#dfe4ec"/></svg>