<svg xmlns="http://www.w3.org/2000/svg" width="960" height="560" viewBox="0 0 960 560"><rect width="100%" height="100%" fill="#ffffff"/><text x="64" y="26" font-size="18" font-weight="700" fill="#1c2738">洪田股份 603800 · 买点二·前高支撑确认</text><text x="936" y="26" text-anchor="end" font-size="13" fill="#6f7b8f">确认 2026-08-14</text><line x1="64" y1="46.0" x2="936" y2="46.0" stroke="#edf0f5"/><text x="56" y="50.0" text-anchor="end" font-size="11" fill="#8a94a6">96.59</text><line x1="64" y1="133.5" x2="936" y2="133.5" stroke="#edf0f5"/><text x="56" y="137.5" text-anchor="end" font-size="11" fill="#8a94a6">80.79</text><line x1="64" y1="221.0" x2="936" y2="221.0" stroke="#edf0f5"/><text x="56" y="225.0" text-anchor="end" font-size="11" fill="#8a94a6">65.00</text><line x1="64" y1="308.5" x2="936" y2="308.5" stroke="#edf0f5"/><text x="56" y="312.5" text-anchor="end" font-size="11" fill="#8a94a6">49.21</text><line x1="64" y1="396.0" x2="936" y2="396.0" stroke="#edf0f5"/><text x="56" y="400.0" text-anchor="end" font-size="11" fill="#8a94a6">33.41</text><line x1="64" y1="306.9" x2="936" y2="306.9" stroke="#2f6fed" stroke-width="2" stroke-dasharray="8 5"/><text x="932" y="300.9" text-anchor="end" font-size="12" fill="#2f6fed">邻近前高 49.50</text><line x1="68.8" y1="363.2" x2="68.8" y2="371.9" stroke="#168a50" stroke-width="1.2"/><rect x="66.0" y="363.5" width="5.6" height="7.2" fill="#168a50" stroke="#168a50" stroke-width="1.2"/><rect x="66.0" y="497.7" width="5.6" height="12.3" fill="#168a50" opacity="0.75"/><line x1="78.4" y1="364.4" x2="78.4" y2="371.1" stroke="#d84a3a" stroke-width="1.2"/><rect x="75.6" y="367.7" width="5.6" height="3.2" fill="#ffffff" stroke="#d84a3a" stroke-width="1.2"/><rect x="75.6" y="498.0" width="5.6" height="12.0" fill="#d84a3a" opacity="0.75"/><line x1="88.0" y1="357.8" x2="88.0" y2="365.1" stroke="#d84a3a" stroke-width="1.2"/><rect x="85.2" y="357.9" width="5.6" height="6.6" fill="#ffffff" stroke="#d84a3a" stroke-width="1.2"/><rect x="85.2" y="493.8" width="5.6" height="16.2" fill="#d84a3a" opacity="0.75"/><line x1="97.5" y1="354.0" x2="97.5" y2="361.9" stroke="#d84a3a" stroke-width="1.2"/><rect x="94.8" y="358.8" width="5.6" height="1.4" fill="#ffffff" stroke="#d84a3a" stroke-width="1.2"/><rect x="94.8" y="490.4" width="5.6" height="19.6" fill="#d84a3a" opacity="0.75"/><line x1="107.1" y1="336.6" x2="107.1" y2="359.5" stroke="#d84a3a" stroke-width="1.2"/><rect x="104.3" y="339.5" width="5.6" height="19.9" fill="#ffffff" stroke="#d84a3a" stroke-width="1.2"/><rect x="104.3" y="456.6" width="5.6" height="53.4" fill="#d84a3a" opacity="0.75"/><line x1="116.7" y1="315.4" x2="116.7" y2="340.8" stroke="#d84a3a" stroke-width="1.2"/><rect x="113.9" y="315.4" width="5.6" height="24.3" fill="#ffffff" stroke="#d84a3a" stroke-width="1.2"/><rect x="113.9" y="454.5" width="5.6" height="55.5" fill="#d84a3a" opacity="0.75"/><line x1="126.3" y1="306.9" x2="126.3" y2="316.8" stroke="#d84a3a" stroke-width="1.2"/><rect x="123.5" y="312.9" width="5.6" height="1.5" fill="#ffffff" stroke="#d84a3a" stroke-width="1.2"/><rect x="123.5" y="455.7" width="5.6" height="54.3" fill="#d84a3a" opacity="0.75"/><line x1="135.9" y1="308.6" x2="135.9" y2="324.1" stroke="#168a50" stroke-width="1.2"/><rect x="133.1" y="311.9" width="5.6" height="11.5" fill="#168a50" stroke="#168a50" stroke-width="1.2"/><rect x="133.1" y="470.7" width="5.6" height="39.3" fill="#168a50" opacity="0.75"/><line x1="145.5" y1="320.2" x2="145.5" y2="326.7" stroke="#168a50" stroke-width="1.2"/><rect x="142.7" y="322.7" width="5.6" height="1.4" fill="#168a50" stroke="#168a50" stroke-width="1.2"/><rect x="142.7" y="482.2" width="5.6" height="27.8" fill="#168a50" opacity="0.75"/><line x1="155.0" y1="312.5" x2="155.0" y2="325.4" stroke="#d84a3a" stroke-width="1.2"/><rect x="152.3" y="318.0" width="5.6" height="5.0" fill="#ffffff" stroke="#d84a3a" stroke-width="1.2"/><rect x="152.3" y="485.1" width="5.6" height="24.9" fill="#d84a3a" opacity="0.75"/><line x1="164.6" y1="309.6" x2="164.6" y2="331.8" stroke="#d84a3a" stroke-width="1.2"/><rect x="161.8" y="316.7" width="5.6" height="1.8" fill="#ffffff" stroke="#d84a3a" stroke-width="1.2"/><rect x="161.8" y="463.4" width="5.6" height="46.6" fill="#d84a3a" opacity="0.75"/><line x1="174.2" y1="306.3" x2="174.2" y2="321.8" stroke="#d84a3a" stroke-width="1.2"/><rect x="171.4" y="309.5" width="5.6" height="2.9" fill="#ffffff" stroke="#d84a3a" stroke-width="1.2"/><rect x="171.4" y="474.6" width="5.6" height="35.4" fill="#d84a3a" opacity="0.75"/><line x1="183.8" y1="306.9" x2="183.8" y2="314.2" stroke="#d84a3a" stroke-width="1.2"/><rect x="181.0" y="309.5" width="5.6" height="2.7" fill="#ffffff" stroke="#d84a3a" stroke-width="1.2"/><rect x="181.0" y="481.4" width="5.6" height="28.6" fill="#d84a3a" opacity="0.75"/><line x1="193.4" y1="302.6" x2="193.4" y2="315.8" stroke="#d84a3a" stroke-width="1.2"/><rect x="190.6" y="314.9" width="5.6" height="1.4" fill="#ffffff" stroke="#d84a3a" stroke-width="1.2"/><rect x="190.6" y="474.5" width="5.6" height="35.5" fill="#d84a3a" opacity="0.75"/><line x1="202.9" y1="305.3" x2="202.9" y2="322.3" stroke="#168a50" stroke-width="1.2"/><rect x="200.2" y="315.2" width="5.6" height="3.0" fill="#168a50" stroke="#168a50" stroke-width="1.2"/><rect x="200.2" y="470.1" width="5.6" height="39.9" fill="#168a50" opacity="0.75"/><line x1="212.5" y1="293.0" x2="212.5" y2="311.9" stroke="#d84a3a" stroke-width="1.2"/><rect x="209.7" y="295.8" width="5.6" height="15.7" fill="#ffffff" stroke="#d84a3a" stroke-width="1.2"/><rect x="209.7" y="458.1" width="5.6" height="51.9" fill="#d84a3a" opacity="0.75"/><line x1="222.1" y1="294.1" x2="222.1" y2="303.4" stroke="#d84a3a" stroke-width="1.2"/><rect x="219.3" y="298.6" width="5.6" height="1.8" fill="#ffffff" stroke="#d84a3a" stroke-width="1.2"/><rect x="219.3" y="480.1" width="5.6" height="29.9" fill="#d84a3a" opacity="0.75"/><line x1="231.7" y1="290.3" x2="231.7" y2="322.0" stroke="#168a50" stroke-width="1.2"/><rect x="228.9" y="303.6" width="5.6" height="7.4" fill="#168a50" stroke="#168a50" stroke-width="1.2"/><rect x="228.9" y="452.7" width="5.6" height="57.3" fill="#168a50" opacity="0.75"/><line x1="241.3" y1="292.8" x2="241.3" y2="320.8" stroke="#d84a3a" stroke-width="1.2"/><rect x="238.5" y="293.5" width="5.6" height="27.3" fill="#ffffff" stroke="#d84a3a" stroke-width="1.2"/><rect x="238.5" y="459.2" width="5.6" height="50.8" fill="#d84a3a" opacity="0.75"/><line x1="250.9" y1="283.1" x2="250.9" y2="298.0" stroke="#d84a3a" stroke-width="1.2"/><rect x="248.1" y="290.9" width="5.6" height="2.6" fill="#ffffff" stroke="#d84a3a" stroke-width="1.2"/><rect x="248.1" y="470.7" width="5.6" height="39.3" fill="#d84a3a" opacity="0.75"/><line x1="260.4" y1="279.2" x2="260.4" y2="296.3" stroke="#d84a3a" stroke-width="1.2"/><rect x="257.7" y="282.4" width="5.6" height="8.5" fill="#ffffff" stroke="#d84a3a" stroke-width="1.2"/><rect x="257.7" y="479.8" width="5.6" height="30.2" fill="#d84a3a" opacity="0.75"/><line x1="270.0" y1="271.5" x2="270.0" y2="287.2" stroke="#d84a3a" stroke-width="1.2"/><rect x="267.2" y="275.7" width="5.6" height="8.9" fill="#ffffff" stroke="#d84a3a" stroke-width="1.2"/><rect x="267.2" y="478.5" width="5.6" height="31.5" fill="#d84a3a" opacity="0.75"/><line x1="279.6" y1="268.1" x2="279.6" y2="284.7" stroke="#d84a3a" stroke-width="1.2"/><rect x="276.8" y="271.7" width="5.6" height="4.0" fill="#ffffff" stroke="#d84a3a" stroke-width="1.2"/><rect x="276.8" y="462.1" width="5.6" height="47.9" fill="#d84a3a" opacity="0.75"/><line x1="289.2" y1="256.0" x2="289.2" y2="275.1" stroke="#d84a3a" stroke-width="1.2"/><rect x="286.4" y="258.6" width="5.6" height="13.1" fill="#ffffff" stroke="#d84a3a" stroke-width="1.2"/><rect x="286.4" y="464.8" width="5.6" height="45.2" fill="#d84a3a" opacity="0.75"/><line x1="298.8" y1="257.0" x2="298.8" y2="269.1" stroke="#d84a3a" stroke-width="1.2"/><rect x="296.0" y="261.9" width="5.6" height="1.4" fill="#ffffff" stroke="#d84a3a" stroke-width="1.2"/><rect x="296.0" y="456.6" width="5.6" height="53.4" fill="#d84a3a" opacity="0.75"/><line x1="308.4" y1="251.0" x2="308.4" y2="277.7" stroke="#d84a3a" stroke-width="1.2"/><rect x="305.6" y="264.2" width="5.6" height="1.4" fill="#ffffff" stroke="#d84a3a" stroke-width="1.2"/><rect x="305.6" y="467.7" width="5.6" height="42.3" fill="#d84a3a" opacity="0.75"/><line x1="317.9" y1="253.2" x2="317.9" y2="270.2" stroke="#d84a3a" stroke-width="1.2"/><rect x="315.2" y="263.3" width="5.6" height="2.4" fill="#ffffff" stroke="#d84a3a" stroke-width="1.2"/><rect x="315.2" y="477.8" width="5.6" height="32.2" fill="#d84a3a" opacity="0.75"/><line x1="327.5" y1="257.6" x2="327.5" y2="275.6" stroke="#168a50" stroke-width="1.2"/><rect x="324.7" y="269.2" width="5.6" height="2.0" fill="#168a50" stroke="#168a50" stroke-width="1.2"/><rect x="324.7" y="475.8" width="5.6" height="34.2" fill="#168a50" opacity="0.75"/><line x1="337.1" y1="261.8" x2="337.1" y2="281.9" stroke="#d84a3a" stroke-width="1.2"/><rect x="334.3" y="262.0" width="5.6" height="11.5" fill="#ffffff" stroke="#d84a3a" stroke-width="1.2"/><rect x="334.3" y="476.4" width="5.6" height="33.6" fill="#d84a3a" opacity="0.75"/><line x1="346.7" y1="252.7" x2="346.7" y2="261.9" stroke="#d84a3a" stroke-width="1.2"/><rect x="343.9" y="254.8" width="5.6" height="7.1" fill="#ffffff" stroke="#d84a3a" stroke-width="1.2"/><rect x="343.9" y="478.7" width="5.6" height="31.3" fill="#d84a3a" opacity="0.75"/><line x1="356.3" y1="232.7" x2="356.3" y2="267.2" stroke="#168a50" stroke-width="1.2"/><rect x="353.5" y="251.7" width="5.6" height="14.0" fill="#168a50" stroke="#168a50" stroke-width="1.2"/><rect x="353.5" y="464.3" width="5.6" height="45.7" fill="#168a50" opacity="0.75"/><line x1="365.8" y1="234.2" x2="365.8" y2="265.7" stroke="#d84a3a" stroke-width="1.2"/><rect x="363.1" y="234.2" width="5.6" height="31.5" fill="#ffffff" stroke="#d84a3a" stroke-width="1.2"/><rect x="363.1" y="461.1" width="5.6" height="48.9" fill="#d84a3a" opacity="0.75"/><line x1="375.4" y1="201.5" x2="375.4" y2="236.5" stroke="#168a50" stroke-width="1.2"/><rect x="372.6" y="202.1" width="5.6" height="21.2" fill="#168a50" stroke="#168a50" stroke-width="1.2"/><rect x="372.6" y="439.6" width="5.6" height="70.4" fill="#168a50" opacity="0.75"/><line x1="385.0" y1="215.1" x2="385.0" y2="239.7" stroke="#d84a3a" stroke-width="1.2"/><rect x="382.2" y="218.2" width="5.6" height="3.9" fill="#ffffff" stroke="#d84a3a" stroke-width="1.2"/><rect x="382.2" y="465.3" width="5.6" height="44.7" fill="#d84a3a" opacity="0.75"/><line x1="394.6" y1="207.1" x2="394.6" y2="249.8" stroke="#168a50" stroke-width="1.2"/><rect x="391.8" y="209.9" width="5.6" height="33.2" fill="#168a50" stroke="#168a50" stroke-width="1.2"/><rect x="391.8" y="461.5" width="5.6" height="48.5" fill="#168a50" opacity="0.75"/><line x1="404.2" y1="237.6" x2="404.2" y2="250.9" stroke="#168a50" stroke-width="1.2"/><rect x="401.4" y="241.4" width="5.6" height="1.4" fill="#168a50" stroke="#168a50" stroke-width="1.2"/><rect x="401.4" y="480.2" width="5.6" height="29.8" fill="#168a50" opacity="0.75"/><line x1="413.8" y1="212.6" x2="413.8" y2="254.2" stroke="#168a50" stroke-width="1.2"/><rect x="411.0" y="234.4" width="5.6" height="4.5" fill="#168a50" stroke="#168a50" stroke-width="1.2"/><rect x="411.0" y="450.7" width="5.6" height="59.3" fill="#168a50" opacity="0.75"/><line x1="423.3" y1="204.7" x2="423.3" y2="245.5" stroke="#d84a3a" stroke-width="1.2"/><rect x="420.6" y="215.5" width="5.6" height="22.7" fill="#ffffff" stroke="#d84a3a" stroke-width="1.2"/><rect x="420.6" y="433.0" width="5.6" height="77.0" fill="#d84a3a" opacity="0.75"/><line x1="432.9" y1="178.9" x2="432.9" y2="229.3" stroke="#d84a3a" stroke-width="1.2"/><rect x="430.1" y="187.8" width="5.6" height="41.5" fill="#ffffff" stroke="#d84a3a" stroke-width="1.2"/><rect x="430.1" y="427.5" width="5.6" height="82.5" fill="#d84a3a" opacity="0.75"/><line x1="442.5" y1="160.2" x2="442.5" y2="204.3" stroke="#d84a3a" stroke-width="1.2"/><rect x="439.7" y="160.8" width="5.6" height="27.4" fill="#ffffff" stroke="#d84a3a" stroke-width="1.2"/><rect x="439.7" y="422.9" width="5.6" height="87.1" fill="#d84a3a" opacity="0.75"/><line x1="452.1" y1="135.7" x2="452.1" y2="172.8" stroke="#d84a3a" stroke-width="1.2"/><rect x="449.3" y="154.5" width="5.6" height="15.5" fill="#ffffff" stroke="#d84a3a" stroke-width="1.2"/><rect x="449.3" y="429.3" width="5.6" height="80.7" fill="#d84a3a" opacity="0.75"/><line x1="461.7" y1="135.2" x2="461.7" y2="178.9" stroke="#d84a3a" stroke-width="1.2"/><rect x="458.9" y="157.0" width="5.6" height="3.0" fill="#ffffff" stroke="#d84a3a" stroke-width="1.2"/><rect x="458.9" y="448.1" width="5.6" height="61.9" fill="#d84a3a" opacity="0.75"/><line x1="471.3" y1="156.3" x2="471.3" y2="192.6" stroke="#168a50" stroke-width="1.2"/><rect x="468.5" y="176.9" width="5.6" height="1.4" fill="#168a50" stroke="#168a50" stroke-width="1.2"/><rect x="468.5" y="455.4" width="5.6" height="54.6" fill="#168a50" opacity="0.75"/><line x1="480.8" y1="158.5" x2="480.8" y2="176.3" stroke="#d84a3a" stroke-width="1.2"/><rect x="478.1" y="165.6" width="5.6" height="5.5" fill="#ffffff" stroke="#d84a3a" stroke-width="1.2"/><rect x="478.1" y="474.4" width="5.6" height="35.6" fill="#d84a3a" opacity="0.75"/><line x1="490.4" y1="125.2" x2="490.4" y2="175.0" stroke="#d84a3a" stroke-width="1.2"/><rect x="487.6" y="143.4" width="5.6" height="26.0" fill="#ffffff" stroke="#d84a3a" stroke-width="1.2"/><rect x="487.6" y="456.4" width="5.6" height="53.6" fill="#d84a3a" opacity="0.75"/><line x1="500.0" y1="142.7" x2="500.0" y2="182.2" stroke="#168a50" stroke-width="1.2"/><rect x="497.2" y="142.7" width="5.6" height="26.8" fill="#168a50" stroke="#168a50" stroke-width="1.2"/><rect x="497.2" y="460.3" width="5.6" height="49.7" fill="#168a50" opacity="0.75"/><line x1="509.6" y1="157.3" x2="509.6" y2="207.0" stroke="#168a50" stroke-width="1.2"/><rect x="506.8" y="161.2" width="5.6" height="43.0" fill="#168a50" stroke="#168a50" stroke-width="1.2"/><rect x="506.8" y="443.7" width="5.6" height="66.3" fill="#168a50" opacity="0.75"/><line x1="519.2" y1="166.5" x2="519.2" y2="201.2" stroke="#d84a3a" stroke-width="1.2"/><rect x="516.4" y="166.5" width="5.6" height="33.1" fill="#ffffff" stroke="#d84a3a" stroke-width="1.2"/><rect x="516.4" y="465.0" width="5.6" height="45.0" fill="#d84a3a" opacity="0.75"/><line x1="528.7" y1="131.3" x2="528.7" y2="160.0" stroke="#d84a3a" stroke-width="1.2"/><rect x="526.0" y="134.6" width="5.6" height="18.8" fill="#ffffff" stroke="#d84a3a" stroke-width="1.2"/><rect x="526.0" y="459.5" width="5.6" height="50.5" fill="#d84a3a" opacity="0.75"/><line x1="538.3" y1="127.9" x2="538.3" y2="151.7" stroke="#d84a3a" stroke-width="1.2"/><rect x="535.6" y="130.5" width="5.6" height="8.3" fill="#ffffff" stroke="#d84a3a" stroke-width="1.2"/><rect x="535.6" y="463.6" width="5.6" height="46.4" fill="#d84a3a" opacity="0.75"/><line x1="547.9" y1="127.9" x2="547.9" y2="145.0" stroke="#168a50" stroke-width="1.2"/><rect x="545.1" y="132.4" width="5.6" height="2.1" fill="#168a50" stroke="#168a50" stroke-width="1.2"/><rect x="545.1" y="477.5" width="5.6" height="32.5" fill="#168a50" opacity="0.75"/><line x1="557.5" y1="117.8" x2="557.5" y2="167.2" stroke="#168a50" stroke-width="1.2"/><rect x="554.7" y="134.5" width="5.6" height="21.7" fill="#168a50" stroke="#168a50" stroke-width="1.2"/><rect x="554.7" y="456.1" width="5.6" height="53.9" fill="#168a50" opacity="0.75"/><line x1="567.1" y1="154.6" x2="567.1" y2="175.3" stroke="#168a50" stroke-width="1.2"/><rect x="564.3" y="165.2" width="5.6" height="3.7" fill="#168a50" stroke="#168a50" stroke-width="1.2"/><rect x="564.3" y="480.9" width="5.6" height="29.1" fill="#168a50" opacity="0.75"/><line x1="576.7" y1="150.3" x2="576.7" y2="182.3" stroke="#d84a3a" stroke-width="1.2"/><rect x="573.9" y="153.2" width="5.6" height="15.0" fill="#ffffff" stroke="#d84a3a" stroke-width="1.2"/><rect x="573.9" y="477.4" width="5.6" height="32.6" fill="#d84a3a" opacity="0.75"/><line x1="586.2" y1="110.5" x2="586.2" y2="149.0" stroke="#d84a3a" stroke-width="1.2"/><rect x="583.5" y="110.5" width="5.6" height="27.3" fill="#ffffff" stroke="#d84a3a" stroke-width="1.2"/><rect x="583.5" y="475.9" width="5.6" height="34.1" fill="#d84a3a" opacity="0.75"/><line x1="595.8" y1="70.1" x2="595.8" y2="119.1" stroke="#d84a3a" stroke-width="1.2"/><rect x="593.0" y="91.0" width="5.6" height="12.8" fill="#ffffff" stroke="#d84a3a" stroke-width="1.2"/><rect x="593.0" y="443.2" width="5.6" height="66.8" fill="#d84a3a" opacity="0.75"/><line x1="605.4" y1="88.3" x2="605.4" y2="140.1" stroke="#168a50" stroke-width="1.2"/><rect x="602.6" y="90.5" width="5.6" height="41.3" fill="#168a50" stroke="#168a50" stroke-width="1.2"/><rect x="602.6" y="459.2" width="5.6" height="50.8" fill="#168a50" opacity="0.75"/><line x1="615.0" y1="116.7" x2="615.0" y2="144.5" stroke="#d84a3a" stroke-width="1.2"/><rect x="612.2" y="130.7" width="5.6" height="1.4" fill="#ffffff" stroke="#d84a3a" stroke-width="1.2"/><rect x="612.2" y="469.0" width="5.6" height="41.0" fill="#d84a3a" opacity="0.75"/><line x1="624.6" y1="103.7" x2="624.6" y2="157.3" stroke="#168a50" stroke-width="1.2"/><rect x="621.8" y="126.8" width="5.6" height="4.4" fill="#168a50" stroke="#168a50" stroke-width="1.2"/><rect x="621.8" y="458.0" width="5.6" height="52.0" fill="#168a50" opacity="0.75"/><line x1="634.2" y1="118.2" x2="634.2" y2="160.1" stroke="#d84a3a" stroke-width="1.2"/><rect x="631.4" y="139.8" width="5.6" height="14.7" fill="#ffffff" stroke="#d84a3a" stroke-width="1.2"/><rect x="631.4" y="474.2" width="5.6" height="35.8" fill="#d84a3a" opacity="0.75"/><line x1="643.7" y1="129.3" x2="643.7" y2="155.3" stroke="#168a50" stroke-width="1.2"/><rect x="641.0" y="149.0" width="5.6" height="6.3" fill="#168a50" stroke="#168a50" stroke-width="1.2"/><rect x="641.0" y="478.9" width="5.6" height="31.1" fill="#168a50" opacity="0.75"/><line x1="653.3" y1="112.7" x2="653.3" y2="159.3" stroke="#d84a3a" stroke-width="1.2"/><rect x="650.5" y="112.7" width="5.6" height="46.6" fill="#ffffff" stroke="#d84a3a" stroke-width="1.2"/><rect x="650.5" y="420.0" width="5.6" height="90.0" fill="#d84a3a" opacity="0.75"/><line x1="662.9" y1="92.7" x2="662.9" y2="124.9" stroke="#d84a3a" stroke-width="1.2"/><rect x="660.1" y="103.0" width="5.6" height="9.7" fill="#ffffff" stroke="#d84a3a" stroke-width="1.2"/><rect x="660.1" y="440.4" width="5.6" height="69.6" fill="#d84a3a" opacity="0.75"/><line x1="672.5" y1="93.4" x2="672.5" y2="144.8" stroke="#168a50" stroke-width="1.2"/><rect x="669.7" y="93.4" width="5.6" height="49.5" fill="#168a50" stroke="#168a50" stroke-width="1.2"/><rect x="669.7" y="464.3" width="5.6" height="45.7" fill="#168a50" opacity="0.75"/><line x1="682.1" y1="114.5" x2="682.1" y2="154.5" stroke="#d84a3a" stroke-width="1.2"/><rect x="679.3" y="123.5" width="5.6" height="14.9" fill="#ffffff" stroke="#d84a3a" stroke-width="1.2"/><rect x="679.3" y="461.1" width="5.6" height="48.9" fill="#d84a3a" opacity="0.75"/><line x1="691.6" y1="79.7" x2="691.6" y2="131.6" stroke="#d84a3a" stroke-width="1.2"/><rect x="688.9" y="113.6" width="5.6" height="7.6" fill="#ffffff" stroke="#d84a3a" stroke-width="1.2"/><rect x="688.9" y="454.8" width="5.6" height="55.2" fill="#d84a3a" opacity="0.75"/><line x1="701.2" y1="96.9" x2="701.2" y2="145.5" stroke="#168a50" stroke-width="1.2"/><rect x="698.5" y="125.4" width="5.6" height="2.4" fill="#168a50" stroke="#168a50" stroke-width="1.2"/><rect x="698.5" y="460.1" width="5.6" height="49.9" fill="#168a50" opacity="0.75"/><line x1="710.8" y1="111.0" x2="710.8" y2="173.1" stroke="#168a50" stroke-width="1.2"/><rect x="708.0" y="132.4" width="5.6" height="30.7" fill="#168a50" stroke="#168a50" stroke-width="1.2"/><rect x="708.0" y="438.4" width="5.6" height="71.6" fill="#168a50" opacity="0.75"/><line x1="720.4" y1="123.7" x2="720.4" y2="188.5" stroke="#d84a3a" stroke-width="1.2"/><rect x="717.6" y="142.3" width="5.6" height="46.2" fill="#ffffff" stroke="#d84a3a" stroke-width="1.2"/><rect x="717.6" y="447.8" width="5.6" height="62.2" fill="#d84a3a" opacity="0.75"/><line x1="730.0" y1="127.9" x2="730.0" y2="169.6" stroke="#168a50" stroke-width="1.2"/><rect x="727.2" y="150.9" width="5.6" height="17.2" fill="#168a50" stroke="#168a50" stroke-width="1.2"/><rect x="727.2" y="474.2" width="5.6" height="35.8" fill="#168a50" opacity="0.75"/><line x1="739.6" y1="160.6" x2="739.6" y2="209.4" stroke="#168a50" stroke-width="1.2"/><rect x="736.8" y="165.6" width="5.6" height="43.8" fill="#168a50" stroke="#168a50" stroke-width="1.2"/><rect x="736.8" y="478.3" width="5.6" height="31.7" fill="#168a50" opacity="0.75"/><line x1="749.1" y1="200.2" x2="749.1" y2="246.5" stroke="#168a50" stroke-width="1.2"/><rect x="746.4" y="201.0" width="5.6" height="45.5" fill="#168a50" stroke="#168a50" stroke-width="1.2"/><rect x="746.4" y="472.2" width="5.6" height="37.8" fill="#168a50" opacity="0.75"/><line x1="758.7" y1="220.0" x2="758.7" y2="280.0" stroke="#d84a3a" stroke-width="1.2"/><rect x="755.9" y="220.1" width="5.6" height="33.0" fill="#ffffff" stroke="#d84a3a" stroke-width="1.2"/><rect x="755.9" y="452.8" width="5.6" height="57.2" fill="#d84a3a" opacity="0.75"/><line x1="768.3" y1="187.8" x2="768.3" y2="226.5" stroke="#d84a3a" stroke-width="1.2"/><rect x="765.5" y="207.7" width="5.6" height="7.8" fill="#ffffff" stroke="#d84a3a" stroke-width="1.2"/><rect x="765.5" y="469.1" width="5.6" height="40.9" fill="#d84a3a" opacity="0.75"/><line x1="777.9" y1="200.3" x2="777.9" y2="225.3" stroke="#168a50" stroke-width="1.2"/><rect x="775.1" y="201.6" width="5.6" height="17.8" fill="#168a50" stroke="#168a50" stroke-width="1.2"/><rect x="775.1" y="484.5" width="5.6" height="25.5" fill="#168a50" opacity="0.75"/><line x1="787.5" y1="204.4" x2="787.5" y2="232.0" stroke="#168a50" stroke-width="1.2"/><rect x="784.7" y="225.0" width="5.6" height="2.0" fill="#168a50" stroke="#168a50" stroke-width="1.2"/><rect x="784.7" y="491.4" width="5.6" height="18.6" fill="#168a50" opacity="0.75"/><line x1="797.1" y1="216.2" x2="797.1" y2="244.6" stroke="#d84a3a" stroke-width="1.2"/><rect x="794.3" y="217.1" width="5.6" height="12.9" fill="#ffffff" stroke="#d84a3a" stroke-width="1.2"/><rect x="794.3" y="487.5" width="5.6" height="22.5" fill="#d84a3a" opacity="0.75"/><line x1="806.6" y1="207.1" x2="806.6" y2="239.2" stroke="#168a50" stroke-width="1.2"/><rect x="803.9" y="223.7" width="5.6" height="11.9" fill="#168a50" stroke="#168a50" stroke-width="1.2"/><rect x="803.9" y="485.4" width="5.6" height="24.6" fill="#168a50" opacity="0.75"/><line x1="816.2" y1="226.8" x2="816.2" y2="270.2" stroke="#168a50" stroke-width="1.2"/><rect x="813.4" y="239.1" width="5.6" height="23.8" fill="#168a50" stroke="#168a50" stroke-width="1.2"/><rect x="813.4" y="473.2" width="5.6" height="36.8" fill="#168a50" opacity="0.75"/><line x1="825.8" y1="258.9" x2="825.8" y2="294.7" stroke="#168a50" stroke-width="1.2"/><rect x="823.0" y="262.9" width="5.6" height="31.7" fill="#168a50" stroke="#168a50" stroke-width="1.2"/><rect x="823.0" y="476.2" width="5.6" height="33.8" fill="#168a50" opacity="0.75"/><line x1="835.4" y1="271.6" x2="835.4" y2="303.4" stroke="#168a50" stroke-width="1.2"/><rect x="832.6" y="282.7" width="5.6" height="18.9" fill="#168a50" stroke="#168a50" stroke-width="1.2"/><rect x="832.6" y="456.7" width="5.6" height="53.3" fill="#168a50" opacity="0.75"/><line x1="845.0" y1="297.0" x2="845.0" y2="320.7" stroke="#168a50" stroke-width="1.2"/><rect x="842.2" y="299.5" width="5.6" height="17.3" fill="#168a50" stroke="#168a50" stroke-width="1.2"/><rect x="842.2" y="465.4" width="5.6" height="44.6" fill="#168a50" opacity="0.75"/><line x1="854.5" y1="290.4" x2="854.5" y2="322.2" stroke="#d84a3a" stroke-width="1.2"/><rect x="851.8" y="290.4" width="5.6" height="24.8" fill="#ffffff" stroke="#d84a3a" stroke-width="1.2"/><rect x="851.8" y="465.8" width="5.6" height="44.2" fill="#d84a3a" opacity="0.75"/><line x1="864.1" y1="266.0" x2="864.1" y2="295.8" stroke="#d84a3a" stroke-width="1.2"/><rect x="861.4" y="272.2" width="5.6" height="18.6" fill="#ffffff" stroke="#d84a3a" stroke-width="1.2"/><rect x="861.4" y="474.4" width="5.6" height="35.6" fill="#d84a3a" opacity="0.75"/><line x1="873.7" y1="243.2" x2="873.7" y2="276.6" stroke="#d84a3a" stroke-width="1.2"/><rect x="870.9" y="246.6" width="5.6" height="30.0" fill="#ffffff" stroke="#d84a3a" stroke-width="1.2"/><rect x="870.9" y="472.2" width="5.6" height="37.8" fill="#d84a3a" opacity="0.75"/><line x1="883.3" y1="227.8" x2="883.3" y2="253.6" stroke="#d84a3a" stroke-width="1.2"/><rect x="880.5" y="235.4" width="5.6" height="11.2" fill="#ffffff" stroke="#d84a3a" stroke-width="1.2"/><rect x="880.5" y="466.4" width="5.6" height="43.6" fill="#d84a3a" opacity="0.75"/><line x1="892.9" y1="232.4" x2="892.9" y2="251.2" stroke="#d84a3a" stroke-width="1.2"/><rect x="890.1" y="232.9" width="5.6" height="4.1" fill="#ffffff" stroke="#d84a3a" stroke-width="1.2"/><rect x="890.1" y="482.9" width="5.6" height="27.1" fill="#d84a3a" opacity="0.75"/><line x1="902.5" y1="222.8" x2="902.5" y2="236.0" stroke="#d84a3a" stroke-width="1.2"/><rect x="899.7" y="231.7" width="5.6" height="1.7" fill="#ffffff" stroke="#d84a3a" stroke-width="1.2"/><rect x="899.7" y="485.8" width="5.6" height="24.2" fill="#d84a3a" opacity="0.75"/><line x1="912.0" y1="216.9" x2="912.0" y2="232.1" stroke="#d84a3a" stroke-width="1.2"/><rect x="909.3" y="218.3" width="5.6" height="9.5" fill="#ffffff" stroke="#d84a3a" stroke-width="1.2"/><rect x="909.3" y="486.6" width="5.6" height="23.4" fill="#d84a3a" opacity="0.75"/><line x1="921.6" y1="209.9" x2="921.6" y2="228.3" stroke="#168a50" stroke-width="1.2"/><rect x="918.8" y="209.9" width="5.6" height="16.6" fill="#168a50" stroke="#168a50" stroke-width="1.2"/><rect x="918.8" y="486.9" width="5.6" height="23.1" fill="#168a50" opacity="0.75"/><line x1="931.2" y1="196.2" x2="931.2" y2="228.5" stroke="#d84a3a" stroke-width="1.2"/><rect x="928.4" y="199.9" width="5.6" height="28.3" fill="#ffffff" stroke="#d84a3a" stroke-width="1.2"/><rect x="928.4" y="477.5" width="5.6" height="32.5" fill="#d84a3a" opacity="0.75"/><polyline points="68.8,370.9 78.4,370.9 88.0,370.4 97.5,370.2 107.1,368.9 116.7,366.3 126.3,363.8 135.9,361.3 145.5,359.1 155.0,356.3 164.6,353.3 174.2,349.3 183.8,345.5 193.4,342.5 202.9,339.6 212.5,335.9 222.1,332.5 231.7,329.5 241.3,326.0 250.9,322.3 260.4,317.9 270.0,313.3 279.6,309.0 289.2,304.0 298.8,300.1 308.4,297.6 317.9,295.1 327.5,292.5 337.1,289.4 346.7,286.2 356.3,283.7 365.8,279.9 375.4,275.6 385.0,270.8 394.6,267.0 404.2,264.3 413.8,261.3 423.3,256.6 432.9,251.3 442.5,244.8 452.1,238.4 461.7,232.5 471.3,227.7 480.8,223.1 490.4,217.2 500.0,212.4 509.6,209.5 519.2,204.2 528.7,197.9 538.3,191.6 547.9,185.1 557.5,181.2 567.1,178.5 576.7,175.2 586.2,168.6 595.8,161.0 605.4,155.7 615.0,151.4 624.6,148.6 634.2,147.6 643.7,147.6 653.3,145.4 662.9,141.7 672.5,140.5 682.1,139.5 691.6,136.7 701.2,132.9 710.8,132.7 720.4,133.1 730.0,135.0 739.6,138.7 749.1,143.3 758.7,145.8 768.3,148.5 777.9,154.0 787.5,160.8 797.1,165.1 806.6,170.3 816.2,176.9 825.8,184.6 835.4,192.0 845.0,202.2 854.5,211.5 864.1,218.0 873.7,224.2 883.3,230.2 892.9,235.5 902.5,238.9 912.0,242.7 921.6,245.7 931.2,245.2" fill="none" stroke="#7b3ff2" stroke-width="2.2"/><text x="72" y="64" font-size="12" fill="#7b3ff2">MA20</text><line x1="931.2" y1="46" x2="931.2" y2="510" stroke="#f0a000" stroke-width="1.6" stroke-dasharray="5 4"/><text x="926.2" y="62" text-anchor="end" font-size="12" fill="#b66d00">确认K</text><text x="68.8" y="544" text-anchor="middle" font-size="11" fill="#8a94a6">2026-04-03</text><text x="500.0" y="544" text-anchor="middle" font-size="11" fill="#8a94a6">2026-06-11</text><text x="931.2" y="544" text-anchor="middle" font-size="11" fill="#8a94a6">2026-08-14</text><line x1="64" y1="510" x2="936" y2="510" stroke="#dfe4ec"/></svg>