<svg xmlns="http://www.w3.org/2000/svg" width="960" height="560" viewBox="0 0 960 560"><rect width="100%" height="100%" fill="#ffffff"/><text x="64" y="26" font-size="18" font-weight="700" fill="#1c2738">银龙股份 603969 · 买点三·前低支撑确认</text><text x="936" y="26" text-anchor="end" font-size="13" fill="#6f7b8f">确认 2026-08-14</text><line x1="64" y1="46.0" x2="936" y2="46.0" stroke="#edf0f5"/><text x="56" y="50.0" text-anchor="end" font-size="11" fill="#8a94a6">8.56</text><line x1="64" y1="133.5" x2="936" y2="133.5" stroke="#edf0f5"/><text x="56" y="137.5" text-anchor="end" font-size="11" fill="#8a94a6">8.05</text><line x1="64" y1="221.0" x2="936" y2="221.0" stroke="#edf0f5"/><text x="56" y="225.0" text-anchor="end" font-size="11" fill="#8a94a6">7.53</text><line x1="64" y1="308.5" x2="936" y2="308.5" stroke="#edf0f5"/><text x="56" y="312.5" text-anchor="end" font-size="11" fill="#8a94a6">7.01</text><line x1="64" y1="396.0" x2="936" y2="396.0" stroke="#edf0f5"/><text x="56" y="400.0" text-anchor="end" font-size="11" fill="#8a94a6">6.50</text><line x1="64" y1="371.9" x2="936" y2="371.9" stroke="#2f6fed" stroke-width="2" stroke-dasharray="8 5"/><text x="932" y="365.9" text-anchor="end" font-size="12" fill="#2f6fed">邻近前低 6.64</text><line x1="73.5" y1="187.1" x2="73.5" y2="231.2" stroke="#168a50" stroke-width="1.2"/><rect x="70.0" y="200.7" width="7.0" height="17.0" fill="#168a50" stroke="#168a50" stroke-width="1.2"/><rect x="70.0" y="491.2" width="7.0" height="18.8" fill="#168a50" opacity="0.75"/><line x1="92.4" y1="156.6" x2="92.4" y2="212.5" stroke="#168a50" stroke-width="1.2"/><rect x="88.9" y="193.9" width="7.0" height="10.2" fill="#168a50" stroke="#168a50" stroke-width="1.2"/><rect x="88.9" y="485.1" width="7.0" height="24.9" fill="#168a50" opacity="0.75"/><line x1="111.4" y1="171.8" x2="111.4" y2="200.7" stroke="#d84a3a" stroke-width="1.2"/><rect x="107.9" y="187.1" width="7.0" height="6.8" fill="#ffffff" stroke="#d84a3a" stroke-width="1.2"/><rect x="107.9" y="490.7" width="7.0" height="19.3" fill="#d84a3a" opacity="0.75"/><line x1="130.3" y1="151.5" x2="130.3" y2="210.8" stroke="#d84a3a" stroke-width="1.2"/><rect x="126.8" y="187.1" width="7.0" height="1.4" fill="#ffffff" stroke="#d84a3a" stroke-width="1.2"/><rect x="126.8" y="481.8" width="7.0" height="28.2" fill="#d84a3a" opacity="0.75"/><line x1="149.3" y1="188.8" x2="149.3" y2="268.5" stroke="#168a50" stroke-width="1.2"/><rect x="145.8" y="195.6" width="7.0" height="64.4" fill="#168a50" stroke="#168a50" stroke-width="1.2"/><rect x="145.8" y="462.8" width="7.0" height="47.2" fill="#168a50" opacity="0.75"/><line x1="168.3" y1="248.1" x2="168.3" y2="305.8" stroke="#168a50" stroke-width="1.2"/><rect x="164.8" y="254.9" width="7.0" height="8.5" fill="#168a50" stroke="#168a50" stroke-width="1.2"/><rect x="164.8" y="471.3" width="7.0" height="38.7" fill="#168a50" opacity="0.75"/><line x1="187.2" y1="251.5" x2="187.2" y2="310.8" stroke="#d84a3a" stroke-width="1.2"/><rect x="183.7" y="260.0" width="7.0" height="10.2" fill="#ffffff" stroke="#d84a3a" stroke-width="1.2"/><rect x="183.7" y="474.8" width="7.0" height="35.2" fill="#d84a3a" opacity="0.75"/><line x1="206.2" y1="221.0" x2="206.2" y2="273.5" stroke="#d84a3a" stroke-width="1.2"/><rect x="202.7" y="231.2" width="7.0" height="37.3" fill="#ffffff" stroke="#d84a3a" stroke-width="1.2"/><rect x="202.7" y="462.2" width="7.0" height="47.8" fill="#d84a3a" opacity="0.75"/><line x1="225.1" y1="210.8" x2="225.1" y2="265.1" stroke="#168a50" stroke-width="1.2"/><rect x="221.6" y="232.9" width="7.0" height="23.7" fill="#168a50" stroke="#168a50" stroke-width="1.2"/><rect x="221.6" y="483.2" width="7.0" height="26.8" fill="#168a50" opacity="0.75"/><line x1="244.1" y1="246.4" x2="244.1" y2="324.4" stroke="#168a50" stroke-width="1.2"/><rect x="240.6" y="246.4" width="7.0" height="64.4" fill="#168a50" stroke="#168a50" stroke-width="1.2"/><rect x="240.6" y="471.2" width="7.0" height="38.8" fill="#168a50" opacity="0.75"/><line x1="263.0" y1="292.2" x2="263.0" y2="371.9" stroke="#168a50" stroke-width="1.2"/><rect x="259.5" y="304.1" width="7.0" height="47.5" fill="#168a50" stroke="#168a50" stroke-width="1.2"/><rect x="259.5" y="472.8" width="7.0" height="37.2" fill="#168a50" opacity="0.75"/><line x1="282.0" y1="268.5" x2="282.0" y2="366.8" stroke="#d84a3a" stroke-width="1.2"/><rect x="278.5" y="271.9" width="7.0" height="83.1" fill="#ffffff" stroke="#d84a3a" stroke-width="1.2"/><rect x="278.5" y="464.0" width="7.0" height="46.0" fill="#d84a3a" opacity="0.75"/><line x1="301.0" y1="199.0" x2="301.0" y2="288.8" stroke="#168a50" stroke-width="1.2"/><rect x="297.5" y="270.2" width="7.0" height="6.8" fill="#168a50" stroke="#168a50" stroke-width="1.2"/><rect x="297.5" y="468.3" width="7.0" height="41.7" fill="#168a50" opacity="0.75"/><line x1="319.9" y1="173.5" x2="319.9" y2="288.8" stroke="#d84a3a" stroke-width="1.2"/><rect x="316.4" y="205.7" width="7.0" height="71.2" fill="#ffffff" stroke="#d84a3a" stroke-width="1.2"/><rect x="316.4" y="455.6" width="7.0" height="54.4" fill="#d84a3a" opacity="0.75"/><line x1="338.9" y1="115.9" x2="338.9" y2="215.9" stroke="#d84a3a" stroke-width="1.2"/><rect x="335.4" y="156.6" width="7.0" height="32.2" fill="#ffffff" stroke="#d84a3a" stroke-width="1.2"/><rect x="335.4" y="451.0" width="7.0" height="59.0" fill="#d84a3a" opacity="0.75"/><line x1="357.8" y1="85.4" x2="357.8" y2="141.3" stroke="#168a50" stroke-width="1.2"/><rect x="354.3" y="110.8" width="7.0" height="30.5" fill="#168a50" stroke="#168a50" stroke-width="1.2"/><rect x="354.3" y="468.0" width="7.0" height="42.0" fill="#168a50" opacity="0.75"/><line x1="376.8" y1="70.1" x2="376.8" y2="148.1" stroke="#168a50" stroke-width="1.2"/><rect x="373.3" y="121.0" width="7.0" height="15.3" fill="#168a50" stroke="#168a50" stroke-width="1.2"/><rect x="373.3" y="469.5" width="7.0" height="40.5" fill="#168a50" opacity="0.75"/><line x1="395.7" y1="112.5" x2="395.7" y2="188.8" stroke="#168a50" stroke-width="1.2"/><rect x="392.2" y="126.1" width="7.0" height="59.3" fill="#168a50" stroke="#168a50" stroke-width="1.2"/><rect x="392.2" y="481.9" width="7.0" height="28.1" fill="#168a50" opacity="0.75"/><line x1="414.7" y1="176.9" x2="414.7" y2="207.4" stroke="#168a50" stroke-width="1.2"/><rect x="411.2" y="182.0" width="7.0" height="23.7" fill="#168a50" stroke="#168a50" stroke-width="1.2"/><rect x="411.2" y="489.8" width="7.0" height="20.2" fill="#168a50" opacity="0.75"/><line x1="433.7" y1="199.0" x2="433.7" y2="261.7" stroke="#168a50" stroke-width="1.2"/><rect x="430.2" y="207.4" width="7.0" height="10.2" fill="#168a50" stroke="#168a50" stroke-width="1.2"/><rect x="430.2" y="482.6" width="7.0" height="27.4" fill="#168a50" opacity="0.75"/><line x1="452.6" y1="182.0" x2="452.6" y2="273.5" stroke="#d84a3a" stroke-width="1.2"/><rect x="449.1" y="197.3" width="7.0" height="28.8" fill="#ffffff" stroke="#d84a3a" stroke-width="1.2"/><rect x="449.1" y="472.6" width="7.0" height="37.4" fill="#d84a3a" opacity="0.75"/><line x1="471.6" y1="131.2" x2="471.6" y2="297.3" stroke="#168a50" stroke-width="1.2"/><rect x="468.1" y="195.6" width="7.0" height="98.3" fill="#168a50" stroke="#168a50" stroke-width="1.2"/><rect x="468.1" y="420.0" width="7.0" height="90.0" fill="#168a50" opacity="0.75"/><line x1="490.5" y1="266.8" x2="490.5" y2="312.5" stroke="#168a50" stroke-width="1.2"/><rect x="487.0" y="285.4" width="7.0" height="10.2" fill="#168a50" stroke="#168a50" stroke-width="1.2"/><rect x="487.0" y="460.7" width="7.0" height="49.3" fill="#168a50" opacity="0.75"/><line x1="509.5" y1="175.2" x2="509.5" y2="321.0" stroke="#d84a3a" stroke-width="1.2"/><rect x="506.0" y="175.2" width="7.0" height="145.8" fill="#ffffff" stroke="#d84a3a" stroke-width="1.2"/><rect x="506.0" y="458.7" width="7.0" height="51.3" fill="#d84a3a" opacity="0.75"/><line x1="528.4" y1="146.4" x2="528.4" y2="217.6" stroke="#d84a3a" stroke-width="1.2"/><rect x="524.9" y="176.9" width="7.0" height="5.1" fill="#ffffff" stroke="#d84a3a" stroke-width="1.2"/><rect x="524.9" y="452.3" width="7.0" height="57.7" fill="#d84a3a" opacity="0.75"/><line x1="547.4" y1="163.4" x2="547.4" y2="309.1" stroke="#168a50" stroke-width="1.2"/><rect x="543.9" y="165.1" width="7.0" height="128.8" fill="#168a50" stroke="#168a50" stroke-width="1.2"/><rect x="543.9" y="453.8" width="7.0" height="56.2" fill="#168a50" opacity="0.75"/><line x1="566.3" y1="253.2" x2="566.3" y2="314.2" stroke="#168a50" stroke-width="1.2"/><rect x="562.8" y="270.2" width="7.0" height="6.8" fill="#168a50" stroke="#168a50" stroke-width="1.2"/><rect x="562.8" y="459.4" width="7.0" height="50.6" fill="#168a50" opacity="0.75"/><line x1="585.3" y1="238.0" x2="585.3" y2="302.4" stroke="#d84a3a" stroke-width="1.2"/><rect x="581.8" y="241.3" width="7.0" height="30.5" fill="#ffffff" stroke="#d84a3a" stroke-width="1.2"/><rect x="581.8" y="469.3" width="7.0" height="40.7" fill="#d84a3a" opacity="0.75"/><line x1="604.3" y1="229.5" x2="604.3" y2="266.8" stroke="#168a50" stroke-width="1.2"/><rect x="600.8" y="256.6" width="7.0" height="8.5" fill="#168a50" stroke="#168a50" stroke-width="1.2"/><rect x="600.8" y="482.9" width="7.0" height="27.1" fill="#168a50" opacity="0.75"/><line x1="623.2" y1="241.3" x2="623.2" y2="285.4" stroke="#d84a3a" stroke-width="1.2"/><rect x="619.7" y="244.7" width="7.0" height="6.8" fill="#ffffff" stroke="#d84a3a" stroke-width="1.2"/><rect x="619.7" y="486.9" width="7.0" height="23.1" fill="#d84a3a" opacity="0.75"/><line x1="642.2" y1="246.4" x2="642.2" y2="314.2" stroke="#168a50" stroke-width="1.2"/><rect x="638.7" y="258.3" width="7.0" height="50.9" fill="#168a50" stroke="#168a50" stroke-width="1.2"/><rect x="638.7" y="474.1" width="7.0" height="35.9" fill="#168a50" opacity="0.75"/><line x1="661.1" y1="288.8" x2="661.1" y2="317.6" stroke="#d84a3a" stroke-width="1.2"/><rect x="657.6" y="293.9" width="7.0" height="23.7" fill="#ffffff" stroke="#d84a3a" stroke-width="1.2"/><rect x="657.6" y="491.3" width="7.0" height="18.7" fill="#d84a3a" opacity="0.75"/><line x1="680.1" y1="288.8" x2="680.1" y2="331.2" stroke="#168a50" stroke-width="1.2"/><rect x="676.6" y="310.8" width="7.0" height="11.9" fill="#168a50" stroke="#168a50" stroke-width="1.2"/><rect x="676.6" y="488.4" width="7.0" height="21.6" fill="#168a50" opacity="0.75"/><line x1="699.0" y1="205.7" x2="699.0" y2="336.3" stroke="#d84a3a" stroke-width="1.2"/><rect x="695.5" y="241.3" width="7.0" height="81.4" fill="#ffffff" stroke="#d84a3a" stroke-width="1.2"/><rect x="695.5" y="440.6" width="7.0" height="69.4" fill="#d84a3a" opacity="0.75"/><line x1="718.0" y1="254.9" x2="718.0" y2="304.1" stroke="#168a50" stroke-width="1.2"/><rect x="714.5" y="266.8" width="7.0" height="23.7" fill="#168a50" stroke="#168a50" stroke-width="1.2"/><rect x="714.5" y="468.2" width="7.0" height="41.8" fill="#168a50" opacity="0.75"/><line x1="737.0" y1="254.9" x2="737.0" y2="287.1" stroke="#168a50" stroke-width="1.2"/><rect x="733.5" y="283.7" width="7.0" height="3.4" fill="#168a50" stroke="#168a50" stroke-width="1.2"/><rect x="733.5" y="478.7" width="7.0" height="31.3" fill="#168a50" opacity="0.75"/><line x1="755.9" y1="238.0" x2="755.9" y2="295.6" stroke="#d84a3a" stroke-width="1.2"/><rect x="752.4" y="246.4" width="7.0" height="47.5" fill="#ffffff" stroke="#d84a3a" stroke-width="1.2"/><rect x="752.4" y="480.1" width="7.0" height="29.9" fill="#d84a3a" opacity="0.75"/><line x1="774.9" y1="238.0" x2="774.9" y2="256.6" stroke="#d84a3a" stroke-width="1.2"/><rect x="771.4" y="241.3" width="7.0" height="8.5" fill="#ffffff" stroke="#d84a3a" stroke-width="1.2"/><rect x="771.4" y="490.3" width="7.0" height="19.7" fill="#d84a3a" opacity="0.75"/><line x1="793.8" y1="221.0" x2="793.8" y2="263.4" stroke="#168a50" stroke-width="1.2"/><rect x="790.3" y="241.3" width="7.0" height="5.1" fill="#168a50" stroke="#168a50" stroke-width="1.2"/><rect x="790.3" y="476.5" width="7.0" height="33.5" fill="#168a50" opacity="0.75"/><line x1="812.8" y1="214.2" x2="812.8" y2="249.8" stroke="#d84a3a" stroke-width="1.2"/><rect x="809.3" y="227.8" width="7.0" height="15.3" fill="#ffffff" stroke="#d84a3a" stroke-width="1.2"/><rect x="809.3" y="480.4" width="7.0" height="29.6" fill="#d84a3a" opacity="0.75"/><line x1="831.7" y1="217.6" x2="831.7" y2="254.9" stroke="#d84a3a" stroke-width="1.2"/><rect x="828.2" y="231.2" width="7.0" height="6.8" fill="#ffffff" stroke="#d84a3a" stroke-width="1.2"/><rect x="828.2" y="489.7" width="7.0" height="20.3" fill="#d84a3a" opacity="0.75"/><line x1="850.7" y1="214.2" x2="850.7" y2="243.0" stroke="#d84a3a" stroke-width="1.2"/><rect x="847.2" y="224.4" width="7.0" height="3.4" fill="#ffffff" stroke="#d84a3a" stroke-width="1.2"/><rect x="847.2" y="487.3" width="7.0" height="22.7" fill="#d84a3a" opacity="0.75"/><line x1="869.7" y1="219.3" x2="869.7" y2="288.8" stroke="#168a50" stroke-width="1.2"/><rect x="866.2" y="224.4" width="7.0" height="62.7" fill="#168a50" stroke="#168a50" stroke-width="1.2"/><rect x="866.2" y="460.3" width="7.0" height="49.7" fill="#168a50" opacity="0.75"/><line x1="888.6" y1="273.5" x2="888.6" y2="297.3" stroke="#d84a3a" stroke-width="1.2"/><rect x="885.1" y="287.1" width="7.0" height="1.7" fill="#ffffff" stroke="#d84a3a" stroke-width="1.2"/><rect x="885.1" y="475.5" width="7.0" height="34.5" fill="#d84a3a" opacity="0.75"/><line x1="907.6" y1="268.5" x2="907.6" y2="307.4" stroke="#168a50" stroke-width="1.2"/><rect x="904.1" y="282.0" width="7.0" height="23.7" fill="#168a50" stroke="#168a50" stroke-width="1.2"/><rect x="904.1" y="481.6" width="7.0" height="28.4" fill="#168a50" opacity="0.75"/><line x1="926.5" y1="263.4" x2="926.5" y2="304.1" stroke="#d84a3a" stroke-width="1.2"/><rect x="923.0" y="266.8" width="7.0" height="37.3" fill="#ffffff" stroke="#d84a3a" stroke-width="1.2"/><rect x="923.0" y="465.0" width="7.0" height="45.0" fill="#d84a3a" opacity="0.75"/><polyline points="73.5,66.1 92.4,85.7 111.4,103.2 130.3,118.6 149.3,137.5 168.3,150.8 187.2,164.8 206.2,175.1 225.1,184.0 244.1,192.9 263.0,203.5 282.0,206.8 301.0,213.5 319.9,217.2 338.9,220.2 357.8,221.7 376.8,221.8 395.7,221.5 414.7,224.6 433.7,226.3 452.6,225.3 471.6,229.8 490.5,235.2 509.5,234.6 528.4,230.5 547.4,232.0 566.3,232.9 585.3,233.4 604.3,233.8 623.2,230.5 642.2,228.4 661.1,229.5 680.1,231.8 699.0,233.5 718.0,240.2 737.0,247.5 755.9,253.0 774.9,255.8 793.8,257.9 812.8,258.4 831.7,260.1 850.7,256.6 869.7,256.2 888.6,261.8 907.6,268.2 926.5,266.9" fill="none" stroke="#7b3ff2" stroke-width="2.2"/><text x="72" y="64" font-size="12" fill="#7b3ff2">MA20</text><line x1="926.5" y1="46" x2="926.5" y2="510" stroke="#f0a000" stroke-width="1.6" stroke-dasharray="5 4"/><text x="921.5" y="62" text-anchor="end" font-size="12" fill="#b66d00">确认K</text><text x="73.5" y="544" text-anchor="middle" font-size="11" fill="#8a94a6">2026-06-11</text><text x="490.5" y="544" text-anchor="middle" font-size="11" fill="#8a94a6">2026-07-14</text><text x="926.5" y="544" text-anchor="middle" font-size="11" fill="#8a94a6">2026-08-14</text><line x1="64" y1="510" x2="936" y2="510" stroke="#dfe4ec"/></svg>